<svg width="20" height="20" viewBox="0 0 20 20" fill="none" xmlns="http://www.w3.org/2000/svg">
<path fill-rule="evenodd" clip-rule="evenodd" d="M18.9979 7.25707V12.7408C18.9979 13.0153 18.884 13.2296 18.6564 13.3836L10.4308 18.8673C10.2902 18.9543 10.1462 18.9979 9.99894 18.9979C9.85163 18.9979 9.70768 18.9543 9.56707 18.8673L1.34148 13.3836C1.11382 13.2296 1 13.0153 1 12.7408V7.25707C1 6.98255 1.11382 6.76829 1.34148 6.61429L9.56707 1.13056C9.70768 1.04352 9.85163 1 9.99894 1C10.1462 1 10.2902 1.04352 10.4308 1.13056L18.6564 6.61429C18.884 6.76829 18.9979 6.98255 18.9979 7.25707Z" fill="#999195"/>
<path fill-rule="evenodd" clip-rule="evenodd" d="M3.16846 12.7414L9.22466 16.7789V13.1733L5.87015 10.9336L3.16846 12.7414Z" fill="#32242B"/>
<path fill-rule="evenodd" clip-rule="evenodd" d="M2.54736 11.2949L4.48621 9.99904L2.54736 8.70312V11.2949Z" fill="#32242B"/>
<path fill-rule="evenodd" clip-rule="evenodd" d="M10.7729 16.7789L16.8292 12.7414L14.1275 10.9336L10.7729 13.1733V16.7789Z" fill="#32242B"/>
<path fill-rule="evenodd" clip-rule="evenodd" d="M9.99891 11.8277L12.7307 9.99978L9.99891 8.17188L7.26709 9.99978L9.99891 11.8277Z" fill="#32242B"/>
<path fill-rule="evenodd" clip-rule="evenodd" d="M5.87015 9.06599L9.22466 6.8263V3.2207L3.16846 7.25817L5.87015 9.06599Z" fill="#32242B"/>
<path fill-rule="evenodd" clip-rule="evenodd" d="M15.5122 9.99904L17.4511 11.2949V8.70312L15.5122 9.99904Z" fill="#32242B"/>
<path fill-rule="evenodd" clip-rule="evenodd" d="M14.1275 9.06599L16.8292 7.25817L10.7729 3.2207V6.8263L14.1275 9.06599Z" fill="#32242B"/>
</svg>
