<svg width="16" height="16" viewBox="0 0 16 16" fill="none" xmlns="http://www.w3.org/2000/svg">
<rect width="16" height="16" rx="8" fill="#F9761A"/>
<g clip-path="url(#clip0_674_23356)">
<path d="M3.58594 8.29671C3.58594 7.92579 3.88267 7.62906 4.25358 7.62906C4.69868 7.62906 4.99542 7.92579 4.99542 8.29671C4.99542 8.74181 4.69869 9.03854 4.25358 9.03854C3.88267 9.03854 3.58594 8.74182 3.58594 8.29671ZM4.47614 5.70029C4.47614 5.18101 4.84706 4.73591 5.36635 4.73591C5.88563 4.73591 6.33073 5.18101 6.33073 5.70029C6.33073 6.21958 5.88563 6.5905 5.36635 6.5905C4.84706 6.5905 4.47614 6.21958 4.47614 5.70029ZM4.84706 10.9673C4.84706 10.6706 5.06961 10.448 5.36635 10.448C5.66309 10.448 5.88563 10.6706 5.88563 10.9673C5.88563 11.2641 5.66309 11.4866 5.36635 11.4866C5.06961 11.4866 4.84706 11.2641 4.84706 10.9673ZM7.44349 12.0801C7.44349 11.7092 7.66604 11.4866 8.03696 11.4866C8.40789 11.4866 8.63044 11.7092 8.63044 12.0801C8.63044 12.451 8.40789 12.6736 8.03696 12.6736C7.66605 12.6736 7.44349 12.451 7.44349 12.0801ZM10.3367 10.9673C10.3367 10.7448 10.485 10.5964 10.7076 10.5964C10.9301 10.5964 11.0785 10.7448 11.0785 10.9673C11.0785 11.1899 10.9301 11.3382 10.7076 11.3382C10.485 11.3382 10.3367 11.1899 10.3367 10.9673ZM11.1527 8.29671C11.1527 7.99998 11.4494 7.70323 11.8203 7.70323C12.117 7.70323 12.4138 7.99996 12.4138 8.29671C12.4138 8.66763 12.1171 8.96436 11.8203 8.96436C11.4494 8.96436 11.1527 8.66763 11.1527 8.29671ZM9.44645 5.70029C9.44645 4.95846 10.0399 4.43917 10.7076 4.43917C11.3752 4.43917 11.9687 4.95846 11.9687 5.70029C11.9687 6.36794 11.3752 6.96142 10.7076 6.96142C10.0399 6.96142 9.44645 6.36794 9.44645 5.70029ZM6.77584 4.58754C6.77584 3.91989 7.36932 3.32642 8.03696 3.32642C8.70461 3.32642 9.29809 3.91989 9.29809 4.58754C9.29809 5.25519 8.70461 5.84866 8.03696 5.84866C7.36932 5.84866 6.77584 5.25519 6.77584 4.58754Z" fill="white"/>
</g>
<defs>
<clipPath id="clip0_674_23356">
<rect width="10" height="10" fill="white" transform="translate(3 3)"/>
</clipPath>
</defs>
</svg>
