<svg width="115" height="32" viewBox="0 0 115 32" fill="none" xmlns="http://www.w3.org/2000/svg">
<path d="M54.7606 10.2607L50.533 10.888C50.0473 8.46665 48.3907 7.55473 46.8481 7.55473C44.8199 7.55473 43.1632 8.4377 43.1632 10.4606C43.1632 12.2266 44.8771 14.1639 47.4479 14.8193L50.1617 15.4458C52.9324 16.1295 55.3035 18.1809 55.3322 20.5454C55.3607 23.8214 52.5899 26.9265 47.705 26.9265C43.2773 26.9265 40.1066 25.8154 39.0781 22.4827L43.1917 21.3427C43.763 23.28 45.9056 24.8757 47.7622 24.8757C49.5904 24.8757 51.7327 23.9638 51.7327 22.2263C51.7484 21.4768 51.5082 20.7443 51.0514 20.1489C50.5947 19.5535 49.9486 19.1307 49.2191 18.9498L46.0484 18.1236C42.0204 17.269 39.5353 15.1041 39.5353 12.0558C39.5353 7.86798 42.8489 5.61743 46.5625 5.61743C50.9045 5.6172 53.7037 6.55749 54.7606 10.2607Z" fill="white"/>
<path d="M64.1006 26.8572C59.9873 26.8572 57.2734 23.9803 57.2734 20.1908C57.2734 15.633 60.3873 12.642 64.729 12.642C67.2713 12.642 69.3567 14.1514 69.5283 16.2884L67.0144 16.7724C67.0144 15.633 67.0144 13.9806 64.4149 13.9806C62.2724 13.9806 60.5013 15.8611 60.5013 18.5957C60.5013 22.0714 62.4724 24.2651 65.2434 24.2651C66.6202 24.262 67.9604 23.8231 69.071 23.0116L69.271 24.5211C68.5854 25.6611 66.786 26.8572 64.1006 26.8572Z" fill="white"/>
<path d="M77.012 19.5363V26.8859H73.584V14.3225L76.155 12.6133L76.9263 16.2314C77.5832 14.3514 78.9257 12.9555 80.5827 12.9555C80.8717 12.9543 81.1579 13.0117 81.424 13.124C81.6901 13.2364 81.9306 13.4014 82.1309 13.6092C82.3312 13.8169 82.4871 14.0631 82.5892 14.3327C82.6913 14.6023 82.7375 14.8897 82.725 15.1777V15.4052L79.6686 17.2285C79.5542 16.4596 79.3258 15.4052 78.5829 15.4625C77.5261 16.5447 77.1263 17.7982 77.012 19.5363Z" fill="white"/>
<path d="M90.7788 12.8104C86.5224 12.8104 83.5801 15.6874 83.5801 19.9609C83.5801 24.3479 86.4652 26.969 90.7788 27.0257C95.0921 26.94 97.9772 24.3195 97.9772 19.9036C97.9488 15.8872 95.2634 12.8104 90.7788 12.8104ZM90.7788 25.6582C88.2362 25.6582 87.5508 22.9803 87.5508 19.932C87.5508 16.8836 88.2362 14.1207 90.7788 14.1491C93.2923 14.1774 94.0067 16.9126 94.0067 19.932C94.0067 22.9804 93.2923 25.6582 90.7788 25.6582Z" fill="white"/>
<path d="M101.775 7.20114L105.203 4.92169L105.174 26.8857H101.775V7.20114Z" fill="white"/>
<path d="M110.574 7.20114L114.002 4.92169L113.973 26.8857H110.574V7.20114Z" fill="white"/>
<path d="M3.59652 2.03789C3.07335 2.01126 2.53195 1.98362 2.07289 2.36281C1.84297 2.55272 1.55028 2.8498 1.66276 3.23553C1.67384 3.27372 1.68828 3.31086 1.7059 3.34652C1.71076 3.35629 1.71738 3.36443 1.72266 3.37381C1.73547 3.39778 1.74994 3.42083 1.76598 3.44278C1.77313 3.45207 1.78212 3.45974 1.78972 3.46852C1.8061 3.48825 1.82383 3.50682 1.8428 3.52409C1.8519 3.53199 1.86276 3.5383 1.87247 3.54569C1.89278 3.5619 1.91413 3.57679 1.93638 3.59026C1.94759 3.59674 1.96047 3.60165 1.97228 3.60757C1.99634 3.62018 2.02111 3.63143 2.04645 3.64124C2.06013 3.64627 2.07547 3.64982 2.0898 3.65423C2.11651 3.66251 2.14339 3.67083 2.17249 3.67698C2.18946 3.68056 2.2081 3.68263 2.2259 3.68551C2.25468 3.69012 2.28328 3.69486 2.31408 3.69758C2.33559 3.69947 2.35879 3.69983 2.38128 3.7008C2.4044 3.70178 2.42609 3.70409 2.45027 3.70409C2.46297 3.70409 2.47587 3.70409 2.48884 3.7037C3.0346 3.69234 3.59012 3.69512 4.12706 3.69811C4.28451 3.69894 4.44194 3.69955 4.59935 3.69994C4.65134 3.70012 4.7032 3.70051 4.75536 3.7006C4.75171 3.72723 4.74747 3.75312 4.74349 3.77922C4.73851 3.81079 4.73388 3.84275 4.72821 3.87358C4.72228 3.90521 4.7156 3.93572 4.70907 3.96649C4.70275 3.9964 4.69682 4.0267 4.68982 4.05588C4.68255 4.08618 4.67421 4.1153 4.66623 4.14465C4.65858 4.17294 4.6514 4.20161 4.64297 4.22913C4.63428 4.25786 4.62445 4.28535 4.61502 4.31337C4.60612 4.34 4.59742 4.36722 4.58772 4.39326C4.57752 4.42066 4.56615 4.44688 4.55509 4.47348C4.54479 4.49848 4.53494 4.52396 4.52393 4.54825C4.51224 4.57417 4.49936 4.59882 4.4869 4.62394C4.47524 4.64744 4.46406 4.67146 4.45171 4.69428C4.43848 4.71875 4.42403 4.74198 4.41 4.76568C4.39706 4.78758 4.3846 4.81006 4.37098 4.83122C4.35614 4.8543 4.34012 4.87605 4.32455 4.8983C4.31027 4.91869 4.29654 4.93973 4.28161 4.95931C4.26518 4.98097 4.24749 5.00133 4.23028 5.02219C4.21477 5.04098 4.19981 5.06033 4.18364 5.07841C4.16551 5.09877 4.14605 5.1178 4.12709 5.1373C4.11041 5.15446 4.09445 5.17224 4.07704 5.18878C4.0571 5.20781 4.03579 5.22544 4.01502 5.24364C3.99722 5.25918 3.98007 5.27539 3.96162 5.29033C3.93966 5.30809 3.91628 5.3246 3.89338 5.34152C3.87471 5.35537 3.85673 5.3699 3.83751 5.38316C3.81324 5.39985 3.78751 5.41514 3.76232 5.43091C3.74304 5.44299 3.72443 5.4558 3.70458 5.46734C3.67743 5.48314 3.6488 5.49743 3.62062 5.5122C3.60127 5.52235 3.58273 5.53324 3.56288 5.54291C3.5306 5.55862 3.49674 5.57286 3.46316 5.5873C3.44607 5.59466 3.42975 5.60283 3.41233 5.60987C3.36064 5.63076 3.30747 5.65026 3.25282 5.66837C3.1775 5.69329 3.10195 5.71466 3.02617 5.73249C3.00208 5.7382 2.97793 5.74161 2.9538 5.7467C2.90215 5.75756 2.85052 5.76892 2.79878 5.77697C2.76394 5.78241 2.72911 5.78528 2.69425 5.78954C2.6533 5.79454 2.61233 5.8007 2.57138 5.80419C2.52984 5.80777 2.4883 5.80892 2.44677 5.81105C2.41267 5.8128 2.37852 5.81573 2.34449 5.81659C2.29978 5.81771 2.2553 5.81682 2.21074 5.81659C2.18003 5.81659 2.14914 5.81724 2.11852 5.81659C2.07167 5.81543 2.02518 5.81262 1.9786 5.81026C1.95053 5.80881 1.92222 5.80815 1.8943 5.80632C1.84751 5.80336 1.80117 5.79901 1.75485 5.79502C1.72732 5.79265 1.69958 5.79084 1.67216 5.78821C1.63083 5.78425 1.59 5.77951 1.549 5.77504C1.51841 5.7717 1.48758 5.76868 1.4572 5.76513C0.255875 4.81006 -0.150016 3.44491 0.371263 2.11154C0.910048 0.733662 2.06503 0.0581876 3.70924 0.157668C4.07959 0.280827 4.43802 0.437135 4.78014 0.624683L4.78138 0.625423C4.83734 0.657301 4.89247 0.690461 4.94676 0.724904L4.9481 0.725791C5.00228 0.760273 5.0555 0.796156 5.10776 0.833439L5.10971 0.834889C5.16158 0.872053 5.21239 0.910727 5.26216 0.95091L5.2662 0.954313C5.31493 0.993943 5.36255 1.03513 5.40906 1.07788L5.41722 1.08578C5.46188 1.12721 5.5054 1.17026 5.54777 1.21494C5.55251 1.21997 5.55697 1.22538 5.56171 1.23047C5.6012 1.27294 5.63983 1.31658 5.67701 1.36212C5.6849 1.37176 5.69229 1.38212 5.70007 1.39192C5.73306 1.43334 5.76534 1.47577 5.79635 1.51992C5.80801 1.53658 5.81884 1.55424 5.83017 1.57126C5.85569 1.60949 5.88094 1.64819 5.90488 1.68829C5.92099 1.71542 5.93598 1.74394 5.95128 1.77203C5.96849 1.80339 5.98588 1.83455 6.00211 1.8671C6.02288 1.90917 6.04246 1.95291 6.06163 1.99708C6.06842 2.01259 6.07546 2.02777 6.08204 2.04354L3.86463 2.04946C3.77561 2.04691 3.68607 2.04245 3.59652 2.03789Z" fill="#CBA68D"/>
<path d="M2.29565 5.96529C2.27785 5.96529 2.26004 5.96514 2.24224 5.96499L2.21058 5.96473H2.17694L2.11549 5.96446C2.07692 5.96351 2.03835 5.9615 2.00007 5.95943L1.39839 5.90708L1.36527 5.88075C0.110898 4.88334 -0.312053 3.45418 0.233882 2.05779C0.798124 0.614279 2.00339 -0.0938031 3.71906 0.00996807L3.75923 0.0180165C4.13834 0.143422 4.50502 0.303482 4.8546 0.496157C4.91394 0.529978 4.97115 0.564213 5.02743 0.600135C5.08526 0.636975 5.14074 0.674287 5.19513 0.713168C5.2515 0.753558 5.30461 0.793948 5.35659 0.836025C5.41196 0.881179 5.46201 0.924291 5.51088 0.969179C5.56642 1.02111 5.61229 1.06629 5.65677 1.11337C5.71314 1.1745 5.75385 1.22054 5.79305 1.26854L5.81738 1.29993C5.85218 1.34376 5.88633 1.38847 5.91897 1.43507L5.94321 1.47155C5.98178 1.52952 6.00824 1.57021 6.03349 1.61267C6.04682 1.63515 6.05937 1.65826 6.07189 1.68137L5.95914 1.78405L6.08925 1.71303C6.10518 1.74203 6.12108 1.77103 6.13612 1.80118C6.15823 1.8458 6.17879 1.89182 6.19897 1.93827L6.30548 2.19088L3.86619 2.19751C3.77386 2.19493 3.68565 2.19047 3.59744 2.186L3.58948 2.18561C3.07194 2.15931 2.5831 2.13448 2.16872 2.47672C1.85018 2.73983 1.7385 2.96113 1.80641 3.19421C1.81508 3.22404 1.82634 3.25306 1.84009 3.28094C1.86317 3.31893 1.87273 3.33695 1.88492 3.35275C1.91673 3.38713 1.92803 3.40077 1.94147 3.41246C1.98034 3.44069 1.99512 3.45247 2.012 3.4622L2.04016 3.47534C2.05926 3.48547 2.07892 3.49451 2.09905 3.50242L2.09104 3.65421L2.13492 3.51289C2.15866 3.5202 2.18053 3.52718 2.20444 3.53221L2.25073 3.5394C2.27933 3.54402 2.30298 3.54795 2.32832 3.55017L2.45145 3.55609L2.48705 3.55574C3.04592 3.54408 3.62138 3.5473 4.1291 3.55011L4.92652 3.55281L4.89332 3.78834L4.75615 3.80524L4.88724 3.82539L4.85959 3.97579L4.70503 3.98988L4.85042 4.01985L4.816 4.16292L4.66109 4.16753L4.80446 4.20553L4.76345 4.34049L4.60848 4.33596L4.74933 4.38244L4.70138 4.51051L4.5471 4.49548L4.68465 4.55087L4.63014 4.67097L4.47749 4.64511L4.61101 4.70979L4.58326 4.76468C4.57249 4.78463 4.56104 4.8038 4.54953 4.82298L4.39925 4.78593L4.52766 4.8599L4.49686 4.91109C4.48482 4.92988 4.47206 4.94793 4.45924 4.96598L4.31237 4.9174L4.43476 5.00099L4.40094 5.04857C4.38753 5.06632 4.37341 5.08322 4.3594 5.10011L4.21657 5.04043L4.33208 5.13328L4.29558 5.17687C4.28075 5.19347 4.2652 5.20942 4.24959 5.22519L4.11183 5.15447L4.21959 5.25617L4.18067 5.29576C4.16444 5.31127 4.14744 5.326 4.13041 5.34068L3.99831 5.25957L4.09756 5.36953L4.05638 5.40504C4.03843 5.41962 4.01968 5.43341 4.00086 5.44717L3.8753 5.35609L3.96556 5.47351L3.92298 5.50487C3.90301 5.5186 3.88218 5.5315 3.86133 5.54443L3.74279 5.44418L3.82364 5.56819L3.7805 5.59512C3.75781 5.60832 3.73419 5.62063 3.71054 5.63288L3.5999 5.52399L3.67126 5.65371L3.62924 5.67578C3.59978 5.69013 3.5691 5.70336 3.53842 5.71656L3.44348 5.59666L3.50546 5.73106L3.46926 5.74694C3.41463 5.76904 3.35844 5.78965 3.3007 5.80879C3.22127 5.83506 3.1416 5.8576 3.06171 5.8764L3.01171 5.88646L2.95498 5.74665L2.96507 5.89575C2.9176 5.90578 2.8703 5.91575 2.82286 5.92312C2.79797 5.92703 2.77304 5.92978 2.74812 5.93247L2.67757 5.94097C2.64677 5.94499 2.61597 5.94895 2.58523 5.95159C2.55351 5.95431 2.52188 5.95576 2.49029 5.95718L2.34935 5.96446C2.33119 5.96502 2.31342 5.96529 2.29565 5.96529ZM2.2123 5.66886L2.24494 5.66909C2.27704 5.66939 2.30915 5.66972 2.3414 5.66889L2.47661 5.66182C2.50423 5.66057 2.53188 5.65939 2.55954 5.65702C2.58591 5.65477 2.61226 5.6511 2.63864 5.64782L2.77669 5.63101C2.81889 5.62444 2.86102 5.61545 2.90312 5.60654L2.99264 5.58879C3.06426 5.57178 3.1357 5.55157 3.20694 5.52816C3.25851 5.51111 3.30866 5.49272 3.3574 5.47297L3.40505 5.45176C3.44698 5.43374 3.4733 5.42246 3.49855 5.41015L3.57334 5.37056C3.59272 5.3605 3.61212 5.35053 3.6307 5.33973L4.13127 4.91053L4.42717 4.39671L4.58273 3.84793L4.12702 3.84616C3.62108 3.84335 3.04773 3.84024 2.49269 3.85172L2.451 3.85214C2.43228 3.85214 2.4148 3.8511 2.3973 3.84998L2.36232 3.70016L2.35715 3.84811C2.33834 3.84743 2.3195 3.84672 2.30167 3.84515C2.26903 3.84219 2.23847 3.83749 2.20791 3.83255C2.17195 3.82725 2.15676 3.82494 2.14249 3.82192C2.10947 3.81497 2.07888 3.80571 2.04838 3.7963C2.02117 3.78858 2.00808 3.78476 1.99589 3.78026C1.96576 3.7687 1.93631 3.75544 1.90768 3.74055C1.88581 3.73052 1.87394 3.7249 1.86296 3.71857C1.83572 3.70225 1.80955 3.68419 1.78464 3.66451C1.77138 3.6557 1.75862 3.64619 1.74639 3.63601C1.7231 3.61504 1.70129 3.59249 1.68112 3.56852C1.6698 3.55731 1.65915 3.54545 1.64922 3.53301C1.62888 3.50549 1.61052 3.47656 1.59427 3.44646C1.58673 3.43553 1.57991 3.42413 1.57386 3.41231C1.55235 3.36884 1.53474 3.32356 1.52122 3.277C1.36845 2.75323 1.82804 2.3736 1.97901 2.24882C2.48233 1.83305 3.07829 1.86335 3.60411 1.89007L3.59726 2.03784L3.60479 1.8901L3.61206 1.89045C3.69811 1.89483 3.78415 1.89933 3.86957 1.90164L5.85099 1.89622C5.84363 1.8825 5.83616 1.86888 5.82865 1.85527L5.77794 1.76354C5.75545 1.72576 5.73154 1.68936 5.70745 1.65323L5.67546 1.60459C5.6463 1.56296 5.61571 1.52301 5.58455 1.48377L5.67778 1.3621L5.56277 1.45554C5.52761 1.41252 5.49106 1.37124 5.45371 1.33109C5.40051 1.27398 5.35918 1.23344 5.31687 1.19397C5.26497 1.14571 5.21964 1.10668 5.17326 1.06901C5.12202 1.02732 5.07345 0.990513 5.02396 0.955035C4.97204 0.91784 4.921 0.883516 4.86908 0.850465C4.81567 0.816436 4.76247 0.784568 4.70859 0.753884C4.38037 0.573018 4.03624 0.422469 3.68051 0.30412C2.117 0.215646 1.02107 0.858898 0.510321 2.16525C0.0189202 3.42223 0.395378 4.71175 1.5171 5.6227L1.98696 5.66244C2.05152 5.66584 2.08712 5.66776 2.12297 5.66865L2.17501 5.66883L2.2123 5.66886Z" fill="#2B2129"/>
<path d="M3.93625 2.17948C3.95109 2.19116 3.96565 2.20315 3.98034 2.21516C3.99437 2.22652 4.00844 2.23768 4.02235 2.24925C4.03677 2.26126 4.05093 2.27372 4.06523 2.28597C4.07953 2.29822 4.09336 2.30964 4.10721 2.32204C4.11979 2.33316 4.13202 2.34482 4.14445 2.35619C4.1597 2.37012 4.17513 2.38385 4.19014 2.39814L4.1921 2.4001C4.32782 2.52676 4.44614 2.67078 4.54396 2.82841L4.54482 2.82977C4.56363 2.86092 4.58143 2.89282 4.59823 2.92546L4.60027 2.92919C4.61647 2.96088 4.63149 2.99343 4.64558 3.02657L4.64879 3.03364C4.66223 3.06569 4.67433 3.09874 4.68564 3.13206L4.68976 3.14345C4.70026 3.17538 4.70931 3.20822 4.71768 3.24145C4.71919 3.24737 4.72106 3.25314 4.72249 3.25921C4.72993 3.29039 4.73587 3.32253 4.74136 3.3549C4.74284 3.36378 4.7448 3.37224 4.74613 3.38111C4.75061 3.4107 4.75349 3.44127 4.75625 3.4719C4.75741 3.48462 4.75904 3.49702 4.75987 3.50995C4.76165 3.53708 4.76186 3.56513 4.76222 3.5931C4.76222 3.60674 4.76281 3.6202 4.76263 3.63402C4.55067 3.63374 4.33867 3.63292 4.12665 3.63156C3.97678 3.63065 3.82321 3.63065 3.67118 3.63008C3.27861 3.62878 2.88257 3.62878 2.48931 3.63713C2.06179 3.64402 1.81387 3.50862 1.72883 3.21695C1.62721 2.86886 1.90193 2.59199 2.11752 2.414C2.15294 2.38508 2.18985 2.35802 2.2281 2.33293C2.23767 2.32658 2.24729 2.32038 2.25697 2.31435C2.29201 2.29236 2.3274 2.27188 2.36336 2.25386L2.37102 2.24972C2.40944 2.23075 2.44843 2.21454 2.48774 2.1996C2.49792 2.19575 2.50816 2.19208 2.51839 2.18847C2.55346 2.1761 2.5888 2.1648 2.62449 2.15533C2.62936 2.154 2.6342 2.15237 2.63909 2.1511C2.67897 2.14077 2.7192 2.13243 2.75976 2.12512C2.77053 2.1232 2.78139 2.12145 2.79222 2.1197C2.82708 2.11408 2.86212 2.10929 2.89734 2.10553C2.90405 2.10482 2.91072 2.10381 2.91743 2.10316C2.9582 2.0992 2.99923 2.09645 3.04035 2.09449C3.05175 2.09396 3.06317 2.09358 3.07456 2.09319C3.10872 2.09195 3.14292 2.09125 3.17716 2.09109C3.18512 2.09109 3.19307 2.09085 3.20105 2.09088C3.26386 2.09088 3.32685 2.09254 3.38978 2.09491L3.39895 2.0952C3.46446 2.09778 3.52994 2.10112 3.59513 2.10438C3.68156 2.10882 3.76802 2.11325 3.85406 2.11583C3.8667 2.12542 3.87931 2.1353 3.89195 2.14506C3.90658 2.15648 3.92145 2.16779 3.93625 2.17948Z" fill="#2B2129"/>
<path d="M2.4603 3.78531C1.98195 3.78531 1.68822 3.6081 1.58624 3.25826C1.44563 2.77654 1.87998 2.41791 2.02269 2.30005C2.06207 2.26787 2.1031 2.23775 2.14561 2.2098L2.17778 2.18909C2.21688 2.16456 2.2564 2.14175 2.29646 2.12169C2.34146 2.09916 2.38762 2.07902 2.43475 2.06135L2.46867 2.04901C2.50724 2.03534 2.54634 2.02303 2.58563 2.01247C2.64515 1.99664 2.68906 1.98747 2.73321 1.97954L2.76623 1.97397C2.80572 1.96761 2.84337 1.96249 2.8812 1.95841C2.94594 1.95169 2.98941 1.94879 3.033 1.94657L3.06267 1.94539C3.10756 1.94379 3.14589 1.94296 3.18369 1.94299C3.26923 1.94299 3.33204 1.94456 3.39503 1.94693L3.60234 1.95649C3.68782 1.96087 3.77327 1.96516 3.85831 1.96779L3.90578 1.96927L3.97061 2.01877L3.9043 2.15468L3.99488 2.0375L4.06099 2.08982L3.99349 2.22572L4.08665 2.11059L4.14872 2.16234L4.07849 2.29727L4.17477 2.18483L4.23183 2.23534L4.15703 2.36772L4.25684 2.25824L4.29245 2.29118C4.43867 2.4273 4.566 2.58229 4.67107 2.75204C4.69255 2.78754 4.7119 2.82237 4.7302 2.85797C4.7502 2.89682 4.76667 2.93247 4.78213 2.96884C4.8004 3.01183 4.81375 3.04805 4.82619 3.08486C4.84227 3.13259 4.8523 3.16875 4.86152 3.20538C4.87496 3.25917 4.88155 3.29451 4.8876 3.33016C4.89769 3.39147 4.90096 3.42485 4.90398 3.45858L4.9079 3.50039C4.90968 3.52773 4.91009 3.55599 4.91045 3.58425L4.91093 3.63597L4.90894 3.78211L3.67064 3.77806C3.27926 3.77673 2.88438 3.77676 2.4924 3.78507C2.48157 3.78525 2.47086 3.78531 2.4603 3.78531ZM2.75955 2.12512L2.7859 2.27073C2.74905 2.27736 2.71241 2.28493 2.67612 2.2944C2.63093 2.30686 2.59919 2.31692 2.56771 2.32805C2.52307 2.34382 2.47931 2.36197 2.43662 2.3824C2.39805 2.40208 2.36675 2.42025 2.33574 2.43969L2.31011 2.45596C2.27614 2.47819 2.24337 2.50218 2.21193 2.52784C1.91665 2.77165 1.81156 2.97139 1.87113 3.1755C1.91484 3.32546 2.02426 3.49651 2.48677 3.48915C2.88049 3.4808 3.27775 3.48077 3.67153 3.4821L4.71371 3.48577L4.75613 3.47178L4.60841 3.485C4.60591 3.45737 4.60336 3.42976 4.59933 3.40304C4.59004 3.35037 4.58476 3.32146 4.57805 3.29338C4.56618 3.24769 4.55808 3.21816 4.54868 3.18949C4.53476 3.14916 4.5239 3.11951 4.5118 3.09069C4.49616 3.05435 4.48263 3.02497 4.46798 2.99633C4.45089 2.96334 4.4348 2.93419 4.41771 2.90602C4.32659 2.75905 4.21622 2.62485 4.08953 2.50697L3.80102 2.26203C3.72995 2.25937 3.6586 2.25579 3.58739 2.25215L3.39296 2.24292C3.32282 2.24034 3.26161 2.2388 3.20058 2.23871C3.14491 2.23907 3.11228 2.23975 3.07967 2.24093L3.04012 2.09438L3.04721 2.24218C3.00864 2.24401 2.97007 2.24656 2.93167 2.25028C2.88043 2.25599 2.848 2.26043 2.81572 2.26564L2.75955 2.12512Z" fill="#2B2129"/>
<path d="M5.21754 6.42793C4.33182 6.48349 3.44264 6.4382 2.56721 6.29294C2.18853 6.24023 1.83195 6.08378 1.53711 5.84102C1.55043 5.8425 1.56402 5.84359 1.5774 5.84501C1.61651 5.84915 1.65574 5.85302 1.6951 5.85661C1.72477 5.85936 1.7543 5.86197 1.78412 5.86439C1.82396 5.86765 1.86399 5.87031 1.90407 5.87286C1.93401 5.87475 1.96386 5.87661 1.99389 5.87806C2.03391 5.87999 2.074 5.88102 2.11432 5.88212C2.14461 5.88292 2.17484 5.88383 2.20526 5.88404C2.21603 5.88404 2.22668 5.88472 2.23748 5.88472C2.25632 5.88472 2.27534 5.88324 2.29421 5.88297C2.34664 5.88232 2.39909 5.88087 2.4517 5.87818C2.48238 5.87661 2.513 5.87442 2.54368 5.87212C2.59519 5.86821 2.64669 5.86294 2.69826 5.85673C2.72858 5.85306 2.75888 5.84945 2.78923 5.84489C2.84439 5.83667 2.89948 5.82613 2.95461 5.81483C2.98078 5.80947 3.00695 5.80504 3.03312 5.79894C3.114 5.78 3.19482 5.75828 3.27541 5.73162C3.33208 5.71286 3.3872 5.69265 3.44076 5.67099C4.23631 5.34915 4.68944 4.7022 4.82435 3.70067H4.82809L4.8291 3.66987L4.83364 3.63413H4.82889C4.82931 3.59915 4.82951 3.56426 4.82785 3.53056C4.82714 3.51553 4.82518 3.50121 4.82405 3.48641C4.8218 3.45703 4.81969 3.42756 4.81592 3.39909C4.81364 3.3817 4.8102 3.36504 4.80738 3.34799C4.80323 3.32299 4.79931 3.29787 4.79403 3.27357C4.79023 3.25603 4.78542 3.2391 4.78106 3.22191C4.77513 3.19904 4.76958 3.17608 4.76284 3.15385C4.75759 3.1366 4.75154 3.11994 4.74575 3.10308C4.73846 3.08183 4.73122 3.06056 4.72309 3.03987C4.7165 3.02307 4.70926 3.00673 4.70211 2.99028C4.6935 2.9704 4.68487 2.95057 4.67541 2.9311C4.66757 2.91486 4.65921 2.89897 4.65087 2.88308C4.64105 2.86438 4.63111 2.84574 4.62063 2.82751C4.61173 2.81192 4.60236 2.79659 4.59292 2.78132C4.582 2.76357 4.57091 2.74605 4.55942 2.7288C4.54944 2.71383 4.53923 2.69903 4.5288 2.68441C4.51694 2.6677 4.50484 2.65118 4.49252 2.63485C4.4816 2.62043 4.4705 2.60617 4.45923 2.59206C4.44651 2.57618 4.43356 2.56049 4.42039 2.54499C4.40876 2.53129 4.3971 2.5177 4.3852 2.5043C4.37164 2.48909 4.35784 2.47415 4.34396 2.45929C4.33164 2.44619 4.31939 2.43311 4.30684 2.42027C4.29269 2.4058 4.27833 2.39162 4.26388 2.37748C4.25112 2.36499 4.23839 2.35248 4.22531 2.34022C4.21047 2.32635 4.19564 2.31277 4.1808 2.29918C4.16766 2.28735 4.1546 2.27531 4.14134 2.26368C4.12612 2.25033 4.11072 2.23731 4.09532 2.22423C4.082 2.21293 4.06862 2.20151 4.05535 2.19041C4.03948 2.1773 4.02355 2.16458 4.00761 2.1518C3.99453 2.14126 3.9815 2.13061 3.96836 2.12028L3.96299 2.11596L6.11549 2.11005C6.1351 2.13816 6.15169 2.16698 6.16928 2.19556C6.1853 2.22163 6.20305 2.24731 6.21746 2.27374C6.23447 2.30487 6.24817 2.33661 6.26307 2.36813C6.27574 2.395 6.28998 2.42154 6.30122 2.44864C6.31446 2.48054 6.32475 2.51279 6.33615 2.54496C6.34576 2.57215 6.35692 2.59916 6.36519 2.62648C6.37525 2.65926 6.38273 2.6922 6.39113 2.7251C6.39801 2.75197 6.40614 2.77877 6.4119 2.80564C6.41928 2.83955 6.42445 2.87337 6.43035 2.90722C6.43486 2.93303 6.44047 2.95892 6.44421 2.98463C6.44952 3.02135 6.45311 3.05769 6.45688 3.09411C6.45928 3.11657 6.46281 3.13927 6.46459 3.16158C6.46833 3.20439 6.47052 3.24653 6.47278 3.28864C6.47361 3.30414 6.47509 3.32 6.47575 3.33539C6.47821 3.39261 6.47957 3.44904 6.48026 3.50434C6.48895 4.19882 6.48862 4.90503 6.48836 5.58808C6.48822 5.86469 6.48828 6.14128 6.48853 6.41787C6.06484 6.40668 5.63429 6.41739 5.21754 6.42793Z" fill="#BB9168"/>
<path d="M4.33773 6.59057C3.73376 6.60061 3.13034 6.54944 2.53674 6.43786C2.13121 6.38076 1.74979 6.21164 1.43561 5.94963L1.10547 5.64486L1.55257 5.69392L1.57023 5.80449L1.58239 5.79138L1.59236 5.69782L2.2055 5.73602L2.23671 5.88465L2.23891 5.7367L2.29154 5.73508C2.34198 5.73442 2.39263 5.73303 2.44334 5.73046L2.53175 5.72454C2.58104 5.72081 2.63035 5.71566 2.67972 5.70975L2.76657 5.6985C2.81908 5.69069 2.87151 5.6806 2.92397 5.66986L2.99853 5.6548C3.07514 5.6369 3.15166 5.61633 3.22797 5.59112C3.28155 5.57337 3.33366 5.55427 3.38427 5.53384C4.12633 5.23359 4.54907 4.6275 4.67657 3.6809L4.68016 3.65427L4.67974 3.63234C4.6801 3.60035 4.68037 3.56849 4.67885 3.53765L4.82323 3.48631L4.67532 3.49756C4.67295 3.46658 4.67117 3.44205 4.66802 3.41829L4.56845 3.05661L4.34251 2.68428L3.8757 2.23641L3.54081 1.97339L3.96172 1.96792L6.19213 1.96179L6.23664 2.02544C6.25328 2.04911 6.26806 2.07352 6.28277 2.09782L6.31046 2.14235C6.32328 2.16238 6.33597 2.18247 6.34713 2.20286C6.36125 2.22875 6.37348 2.25497 6.3857 2.28121L6.40905 2.33027C6.41917 2.35075 6.42917 2.37123 6.43777 2.39197C6.44866 2.41821 6.45789 2.44467 6.467 2.47118L6.48507 2.52166C6.49269 2.54211 6.50023 2.56255 6.50652 2.58312C6.51468 2.60975 6.52135 2.63638 6.52803 2.66322L6.54144 2.71497C6.54681 2.73468 6.55212 2.75441 6.55628 2.77415C6.56221 2.80187 6.56705 2.82951 6.5717 2.85715L6.59043 2.96332C6.59497 2.99453 6.59823 3.02545 6.60146 3.05635L6.45949 3.12118L6.60672 3.10307L6.61179 3.14873C6.6155 3.19136 6.61772 3.23335 6.62004 3.27531L6.62336 3.32902C6.62591 3.38772 6.62731 3.44566 6.62802 3.50244C6.63665 4.19318 6.63639 4.89556 6.63612 5.5752L6.63656 6.56971L6.48403 6.56569C6.06117 6.55453 5.63388 6.56533 5.22066 6.57578L5.21693 6.42783L5.21853 6.57578C4.92755 6.58318 4.63343 6.59057 4.33773 6.59057ZM5.21084 6.28006L5.21693 6.42783L5.21301 6.28006C5.58092 6.27077 5.95969 6.26118 6.33942 6.26686V5.58801C6.33968 4.89677 6.33995 4.1957 6.33134 3.50623C6.33066 3.45238 6.32933 3.39746 6.32695 3.34174L6.47234 3.28865L6.32419 3.29656C6.32182 3.25247 6.31977 3.2137 6.31636 3.17441L6.30891 3.10987C6.30369 3.06013 6.3009 3.03309 6.29705 3.00581L6.28387 2.9326C6.2755 2.88331 6.27165 2.86017 6.2666 2.837L6.24696 2.76166C6.2348 2.71281 6.22952 2.69127 6.22293 2.66993L6.19584 2.59433C6.17937 2.54678 6.17228 2.52595 6.16374 2.50536C6.15759 2.49056 6.15024 2.47577 6.14297 2.46127L6.1284 2.43129C6.10692 2.38493 6.09766 2.3646 6.08686 2.34462C6.07897 2.33018 6.06977 2.31604 6.06066 2.30184L6.0425 2.27305L6.0336 2.25825L4.35817 2.26281L4.68271 2.64694L4.86088 2.98574C4.86931 3.00723 4.8769 3.02921 4.88447 3.05123L4.9045 3.11088C4.91108 3.13257 4.91678 3.15482 4.9223 3.1771L4.93859 3.2422C4.94363 3.26546 4.94749 3.28954 4.95161 3.31339L4.96259 3.3797C4.96642 3.4087 4.96876 3.43868 4.97105 3.46868L4.97253 3.48643H4.99677L4.97582 3.68844V3.7054L4.97119 3.84858H4.95167C4.78789 4.83673 4.31079 5.47841 3.49607 5.80807C3.43954 5.83092 3.3814 5.85222 3.32164 5.87199C3.23678 5.90007 3.15169 5.923 3.06647 5.943L3.01031 5.95463C2.92619 5.97165 2.86845 5.98265 2.81066 5.99126L2.719 6.0031C2.66177 6.00999 2.6081 6.0155 2.55439 6.01958L2.45879 6.02588C2.40423 6.02866 2.3499 6.03017 2.29561 6.03085L2.23644 6.0326L2.15479 6.03094C2.29922 6.08003 2.44688 6.11913 2.5967 6.14794C3.46027 6.29055 4.33725 6.33488 5.21084 6.28006Z" fill="#2B2129"/>
<path d="M11.2604 31.7746C11.2522 31.787 11.245 31.8009 11.2374 31.8143C11.2301 31.827 11.2221 31.8385 11.2155 31.8521H9.85077C9.66252 31.8438 9.47609 31.8117 9.29593 31.7567L9.24279 31.743C7.53852 31.3317 6.48938 29.9143 6.50501 28.0436C6.54842 22.8208 6.54133 17.5102 6.53447 12.3745C6.53184 10.4211 6.53011 8.46767 6.52928 6.51421V6.47992C6.52875 6.19225 6.52866 5.90459 6.52902 5.61696C6.52928 4.9345 6.52958 4.22873 6.521 3.5347C6.53696 3.097 6.44382 2.66218 6.24994 2.26918C6.21696 2.20885 6.18059 2.15043 6.14102 2.09418C6.11425 2.02583 6.08557 1.95985 6.05497 1.89623C6.04459 1.87454 6.03293 1.85442 6.02213 1.83323C6.00073 1.79127 5.97946 1.74914 5.95647 1.70916C5.94267 1.68514 5.92766 1.66262 5.91327 1.63927C5.8917 1.60418 5.8703 1.56882 5.84749 1.53526C5.83132 1.51159 5.81414 1.48905 5.7974 1.46599C5.77482 1.43496 5.75242 1.40386 5.72883 1.37397C5.71071 1.3511 5.69172 1.32941 5.67303 1.30733C5.64929 1.27934 5.62555 1.25126 5.60113 1.22448C5.58128 1.20285 5.56075 1.18214 5.54034 1.16125C5.51556 1.13586 5.49076 1.11047 5.46515 1.08615C5.44379 1.06579 5.42186 1.0462 5.39988 1.02659C5.37401 1.00339 5.34802 0.980338 5.32143 0.958116C5.29876 0.939149 5.27568 0.920744 5.25251 0.902428C5.22557 0.881153 5.19845 0.860145 5.17088 0.839757C5.14699 0.822003 5.12287 0.804674 5.09852 0.787768C5.07069 0.768298 5.0426 0.749183 5.01425 0.730423C4.98925 0.713952 4.96404 0.697756 4.93862 0.681837C4.91008 0.664083 4.88129 0.646605 4.85225 0.629404C4.82617 0.613988 4.80003 0.598749 4.7736 0.583895C4.74446 0.567532 4.71506 0.551612 4.68553 0.5359C4.65851 0.52152 4.6315 0.507169 4.60421 0.493291C4.57472 0.478319 4.54487 0.463701 4.5152 0.44938C4.4871 0.435769 4.45906 0.422157 4.4307 0.40902C4.4015 0.395497 4.3721 0.382389 4.34263 0.369428C4.31317 0.356468 4.28377 0.343182 4.25407 0.330547C4.22576 0.318504 4.19725 0.306876 4.16877 0.295247C4.13749 0.282435 4.10628 0.269504 4.07486 0.257076C4.04916 0.246956 4.02335 0.237251 3.99772 0.227486C3.963 0.214201 3.92835 0.200856 3.89351 0.187866L3.88672 0.185173L3.9482 0.182066C4.1096 0.173899 4.27647 0.165437 4.4401 0.165378C6.42208 0.164944 8.40355 0.166088 10.3845 0.16881C15.1873 0.173308 20.1538 0.17816 25.0384 0.147949H25.0593C25.5215 0.150746 25.9785 0.245609 26.4035 0.42697C26.8285 0.60833 27.2128 0.872533 27.534 1.20407C28.2151 1.88047 28.6 2.79822 28.6046 3.75677C28.5601 9.04067 28.571 14.4134 28.5814 19.6093C28.5854 21.5684 28.5884 23.5275 28.5905 25.4866C28.5033 25.4881 28.4161 25.4897 28.329 25.4916C28.1246 25.4957 27.9132 25.4999 27.7054 25.5C22.9387 25.5015 18.172 25.5025 13.4054 25.503L11.4985 25.5033C11.471 25.5019 11.4434 25.5011 11.4158 25.5004C11.3572 25.4999 11.2988 25.4962 11.2407 25.4892C10.7581 25.403 10.2611 25.4486 9.8023 25.6211C9.34352 25.7935 8.94006 26.0866 8.63463 26.4691C8.62202 26.4853 8.60965 26.5016 8.59737 26.5183C8.53216 26.607 8.47231 26.6995 8.41813 26.7953C8.36267 26.891 8.3127 26.9898 8.26847 27.0912C8.0078 27.6624 7.94695 28.3043 8.09567 28.9141C8.24439 29.5239 8.59407 30.0663 9.08868 30.4543L9.17437 30.5342L9.18253 30.5418L9.1828 30.5421L9.17437 30.5342L9.38936 30.5954L9.23323 30.5924C9.54257 30.8855 9.94448 31.0621 10.3701 31.092C10.4808 31.1041 10.5923 31.1134 10.7041 31.1205C10.7443 31.123 10.7846 31.1241 10.8249 31.1261C10.8967 31.1297 10.9685 31.1338 11.0403 31.1361L11.0538 31.1364C11.273 31.1431 11.4917 31.1446 11.7068 31.1459C11.7268 31.1459 11.7467 31.1465 11.7667 31.1466C11.9123 31.1475 12.0579 31.149 12.2033 31.1519L12.2026 31.1527C12.1772 31.1797 12.1496 31.2046 12.1201 31.227C12.1151 31.2309 12.1103 31.2349 12.1052 31.2386C12.0764 31.2597 12.0465 31.2792 12.0155 31.2969L11.9961 31.3078C11.9646 31.3252 11.9322 31.3418 11.899 31.3575L11.8782 31.3671C11.8459 31.3819 11.8132 31.3967 11.7799 31.4115L11.7755 31.4134C11.737 31.4305 11.6984 31.4479 11.6598 31.4659C11.6437 31.4735 11.6274 31.481 11.6114 31.4889C11.6011 31.4941 11.5911 31.4998 11.5809 31.5052C11.5643 31.5138 11.5477 31.5223 11.5316 31.5316C11.5208 31.5378 11.5106 31.5448 11.5 31.5513C11.485 31.5606 11.4697 31.5697 11.4551 31.5798C11.4446 31.5871 11.4347 31.5955 11.4244 31.6032C11.4106 31.6137 11.3967 31.6239 11.3835 31.6353C11.3734 31.644 11.3641 31.6539 11.3545 31.6633C11.3421 31.6751 11.3296 31.6867 11.3181 31.6997C11.3087 31.7101 11.3003 31.7219 11.2914 31.7332C11.2811 31.7465 11.2703 31.7598 11.2604 31.7746Z" fill="#E5D1B8"/>
<path d="M11.2161 32H9.85141C9.65062 31.9921 9.45169 31.9584 9.25951 31.8999L9.20632 31.8862C7.43369 31.4585 6.34116 29.9854 6.35733 28.0425C6.40068 22.8232 6.39362 17.5158 6.38677 12.3831C6.38414 10.4213 6.38241 8.46504 6.38157 6.5143L6.38128 5.61702C6.38154 4.92619 6.38181 4.2256 6.37327 3.53663C6.38918 3.12321 6.30235 2.71229 6.1205 2.34043C6.09012 2.28485 6.05662 2.23102 6.02016 2.1792L6.00348 2.14813C5.97803 2.08321 5.95077 2.02053 5.92171 1.96009L5.8905 1.90035C5.86715 1.85454 5.84849 1.81779 5.8284 1.78284L5.78745 1.71674C5.76134 1.67425 5.74384 1.64573 5.7253 1.61833L5.6702 1.54231C5.65142 1.51645 5.63272 1.49059 5.61308 1.46585L5.57478 1.41969C5.53499 1.37279 5.51404 1.34799 5.49229 1.32426L5.44524 1.27514C5.4112 1.24029 5.38771 1.21623 5.36343 1.19315L5.30332 1.1382C5.27689 1.11453 5.25217 1.09258 5.22689 1.07145L5.1612 1.01839C5.13545 0.998066 5.10955 0.977974 5.08326 0.958504L4.53762 0.625057L3.8425 0.326438L3.16602 0.0763748L3.94136 0.0342686C4.30037 0.0160709 4.6706 0.0173433 5.03457 0.0173433C6.81835 0.0173433 8.60167 0.0185072 10.3845 0.0208349H10.483C15.254 0.0253029 20.1872 0.0298893 25.0381 0.00012207C25.5235 0.00064783 26.0039 0.0982601 26.4509 0.287185C26.8978 0.476109 27.3022 0.752508 27.6402 1.10003C28.349 1.8045 28.7493 2.76011 28.7537 3.75805C28.7094 9.03777 28.7201 14.4068 28.7305 19.599C28.7345 21.5682 28.7384 23.5275 28.7396 25.4866V25.6322L28.3337 25.6395C28.1218 25.6437 27.9122 25.6479 27.7061 25.648L11.4992 25.6513L11.4168 25.6484C11.3513 25.6478 11.286 25.6435 11.221 25.6357C10.7642 25.5534 10.2936 25.5959 9.85906 25.7585C9.4245 25.9212 9.04214 26.198 8.75248 26.5597L8.71729 26.6063C8.65558 26.6902 8.59895 26.7778 8.54769 26.8684C8.49498 26.9593 8.4475 27.0531 8.40548 27.1493C8.15807 27.6913 8.10032 28.3004 8.24147 28.879C8.38262 29.4576 8.71451 29.9722 9.18391 30.3403L9.24996 30.4015L10.5268 30.7648L9.6992 30.749C9.91433 30.856 10.1475 30.9224 10.3868 30.9447C10.4954 30.9566 10.6046 30.9655 10.7141 30.9726L10.8773 30.9804C10.9334 30.9833 10.9895 30.9863 11.0456 30.988C11.2769 30.9949 11.4944 30.9964 11.7083 30.9977L11.7397 30.9981C11.9145 30.9993 12.0607 31.0008 12.2068 31.0037L12.5366 31.0104L12.3121 31.2528C12.2812 31.2858 12.2476 31.3161 12.2117 31.3436C12.173 31.3732 12.1325 31.4004 12.0903 31.4247C12.0344 31.4559 11.9993 31.4739 11.9631 31.491L11.6785 31.621L11.5816 31.5048L11.6506 31.6358L11.6064 31.6595L11.5008 31.551L11.5789 31.6768L11.5405 31.7011L11.4252 31.6029L11.5149 31.7207L11.4814 31.7467L11.3552 31.663L11.4584 31.7693L11.4296 31.7978L11.2923 31.7329L11.409 31.8241L11.3128 31.9757L11.2161 32ZM6.27334 2.02391C6.31217 2.08021 6.34805 2.13848 6.38083 2.19849C6.58705 2.6124 6.68643 3.07109 6.66997 3.53299C6.67849 4.22323 6.67825 4.92513 6.67798 5.60427L6.67831 6.51415C6.67831 8.46785 6.68003 10.4213 6.68347 12.3745C6.69032 17.5162 6.69739 22.8244 6.65401 28.0451C6.63917 29.8433 7.64464 31.2052 9.27833 31.5994L9.33372 31.6137C9.50185 31.6652 9.67575 31.6956 9.85141 31.7043H11.1302L11.1374 31.693C11.1478 31.6773 11.1591 31.6628 11.1705 31.6484C11.1906 31.6223 11.1991 31.6113 11.2082 31.6012C11.2202 31.5878 11.233 31.5753 11.2458 31.563L11.2871 31.5236C11.3005 31.512 11.3144 31.5013 11.3286 31.4907L11.5883 31.3364C11.6226 31.3204 11.6524 31.3068 11.6809 31.2939C11.4572 31.2924 11.2536 31.2906 11.05 31.2844C10.9782 31.2822 10.9201 31.2792 10.862 31.2762L10.6954 31.2682C10.5813 31.261 10.4676 31.2516 10.3546 31.2392C9.89535 31.206 9.462 31.0143 9.12896 30.6971L8.98586 30.5608C8.88464 30.4772 8.78838 30.3878 8.69759 30.2931L8.63062 30.2309L8.64249 30.2342C8.25065 29.8102 7.99321 29.2801 7.90251 28.7106C7.8118 28.141 7.89187 27.5575 8.13266 27.0332C8.17914 26.9268 8.23165 26.823 8.28992 26.7225C8.34696 26.6216 8.41003 26.5242 8.4788 26.4308L8.51811 26.3789C8.83925 25.9754 9.26385 25.6662 9.74691 25.4839C10.23 25.3015 10.7535 25.2529 11.262 25.3432C11.3141 25.3493 11.3666 25.3526 11.4191 25.3529L11.5069 25.3559L27.7059 25.3521C27.91 25.3521 28.1177 25.3479 28.3187 25.3439L28.4426 25.3415C28.4414 23.431 28.4384 21.5203 28.4337 19.6097C28.4233 14.4066 28.4126 9.03686 28.4569 3.75547C28.452 2.8363 28.0825 1.95642 27.4292 1.30808C27.1217 0.990567 26.7538 0.737482 26.3469 0.563667C25.9401 0.389852 25.5025 0.298807 25.0599 0.295871C20.1881 0.325787 15.2541 0.3212 10.4827 0.316732H10.385C8.44783 0.31476 6.511 0.313606 4.57453 0.31327L5.09673 0.606948C5.12628 0.626379 5.15553 0.646283 5.18449 0.66666L5.25994 0.720869C5.28878 0.742203 5.31715 0.764159 5.34531 0.78641L5.41746 0.844702C5.44533 0.867989 5.47259 0.892045 5.49974 0.916457L5.56819 0.979039C5.5951 1.00463 5.62121 1.03129 5.64726 1.05801L5.7112 1.12459C5.73562 1.15122 5.75912 1.17895 5.78262 1.2067L5.84582 1.28216C5.86801 1.31018 5.88931 1.33944 5.91056 1.36874L5.81353 1.4871L5.93296 1.39933L5.97094 1.45224C5.992 1.48328 6.01197 1.51571 6.03191 1.54817L5.92928 1.66378L6.0547 1.58477L6.08579 1.63555C6.10831 1.67475 6.12935 1.71585 6.15032 1.75686L6.03609 1.85836L6.16688 1.7885L6.18949 1.83235C6.21908 1.89421 6.24703 1.95807 6.27334 2.02391Z" fill="#2B2129"/>
<path d="M11.9752 28.9146C11.9904 28.8075 11.9994 28.6995 12.0021 28.5913C12.0237 28.4288 12.0087 28.2636 11.9584 28.1077C11.908 27.9517 11.8235 27.8088 11.7109 27.6895C11.6879 27.6569 11.6647 27.6238 11.6419 27.5905C11.6356 27.5813 11.6297 27.5719 11.6234 27.5626C11.6069 27.5379 11.5906 27.5131 11.575 27.488C11.5672 27.4755 11.5602 27.4627 11.5529 27.4501C11.5397 27.4277 11.5269 27.4052 11.5151 27.3823C11.5077 27.368 11.5013 27.3534 11.4945 27.3389C11.4877 27.3245 11.4819 27.31 11.4759 27.2954L11.4859 27.2953L13.1511 27.268C13.1703 27.2996 13.1864 27.332 13.2041 27.3641C13.2285 27.4079 13.2542 27.4514 13.2758 27.496C13.2939 27.5332 13.3085 27.5714 13.3246 27.6091C13.343 27.6517 13.3629 27.6938 13.3789 27.7369C13.3946 27.7793 13.4065 27.8224 13.42 27.8652C13.4324 27.9045 13.4467 27.9434 13.4571 27.983C13.4705 28.0333 13.4797 28.0842 13.49 28.1349C13.4967 28.1677 13.5054 28.2 13.5108 28.233C13.5214 28.2971 13.5276 28.3616 13.5335 28.4261C13.5353 28.4459 13.5389 28.4656 13.5403 28.4855C13.5607 28.8859 13.5015 29.2865 13.3659 29.664C13.2304 30.0415 13.0213 30.3886 12.7507 30.6851C12.7266 30.7126 12.6997 30.7387 12.6745 30.7657C12.6354 30.8077 12.5971 30.8501 12.5554 30.8908C12.487 30.9575 12.4152 31.0222 12.3401 31.0851C12.1543 31.0807 11.9682 31.0796 11.7819 31.0784C11.5663 31.0771 11.3469 31.0756 11.1274 31.069L11.1107 31.0687C11.057 31.067 11.0035 31.0637 10.9498 31.0613C10.7785 31.0536 10.6073 31.0432 10.4382 31.0249C10.386 31.0193 10.3351 31.0121 10.2852 31.0036C10.2689 31.0008 10.2533 30.9971 10.2372 30.994C10.2041 30.9877 10.1711 30.9814 10.1391 30.9738C10.1207 30.9694 10.103 30.9641 10.0849 30.9593C10.0563 30.9517 10.0276 30.9441 9.99994 30.9355C9.98133 30.9296 9.96338 30.9231 9.94516 30.9168C9.91911 30.908 9.89318 30.8988 9.86802 30.8888C9.84986 30.8816 9.83224 30.874 9.81462 30.8661C9.79046 30.8557 9.76652 30.845 9.7432 30.8336C9.72593 30.8252 9.70905 30.8163 9.69223 30.8073C9.66962 30.7953 9.6473 30.7829 9.6255 30.77C9.60928 30.7603 9.59329 30.7505 9.57755 30.7404C9.5563 30.7267 9.53554 30.7126 9.51524 30.698C9.50017 30.6872 9.48521 30.6763 9.47074 30.6651C9.45697 30.6545 9.44379 30.6432 9.43044 30.6321L9.39062 30.5953C9.46548 30.5942 9.54034 30.5941 9.61514 30.5941C10.0214 30.6197 10.4287 30.5649 10.8135 30.4327C10.9187 30.3896 11.0201 30.3381 11.1168 30.2786C11.3548 30.1316 11.5559 29.9323 11.7046 29.6959C11.8534 29.4595 11.946 29.1922 11.9752 28.9146Z" fill="#BB9168"/>
<path d="M12.3924 31.2343L12.3366 31.233C12.1554 31.2287 11.9738 31.2276 11.7923 31.2264C11.5641 31.2251 11.3436 31.2235 11.1228 31.2169L10.9431 31.2091C10.7686 31.2013 10.5943 31.1906 10.4222 31.172C10.3669 31.1661 10.313 31.1584 10.2603 31.1495L10.2257 31.1427C10.1739 31.1326 10.1387 31.1258 10.1046 31.1177L10.0636 31.1069C10.0152 31.094 9.98489 31.0859 9.95552 31.0767L9.91036 31.0615C9.86844 31.047 9.84043 31.0371 9.81322 31.0264L9.76278 31.0051C9.72898 30.9905 9.70299 30.9789 9.67766 30.9665L9.62217 30.9379C9.59746 30.9248 9.57313 30.9113 9.5493 30.8971L9.49684 30.8646C9.4736 30.8496 9.45085 30.8342 9.4286 30.8181L9.28942 30.7038L9.01758 30.4527L9.38804 30.4473C9.46358 30.4462 9.53915 30.4461 9.61464 30.446C10.0016 30.4708 10.3897 30.4197 10.7569 30.2957C10.8546 30.2556 10.9489 30.2077 11.0388 30.1525C11.2584 30.0171 11.4439 29.8332 11.5808 29.615C11.7177 29.3967 11.8024 29.1499 11.8283 28.8938C11.8427 28.7923 11.8512 28.6898 11.8538 28.5873C11.8734 28.4408 11.8599 28.2917 11.8142 28.1511C11.7685 28.0104 11.6918 27.8818 11.5897 27.7746L11.5001 27.6448C11.4826 27.6187 11.4653 27.5924 11.4488 27.5658L11.4318 27.5369C11.4103 27.5001 11.3962 27.4753 11.3832 27.4501L11.2575 27.1542L11.4734 27.1476L13.2339 27.1187L13.278 27.1915C13.292 27.2144 13.3045 27.2377 13.3169 27.2611L13.3522 27.3251C13.3721 27.3603 13.3919 27.3956 13.4093 27.4316C13.4227 27.4593 13.4344 27.4873 13.4461 27.5154L13.4765 27.5864C13.491 27.6193 13.5056 27.6523 13.518 27.6857C13.5302 27.7185 13.5403 27.7517 13.5504 27.7848L13.5736 27.8579C13.5832 27.887 13.5928 27.916 13.6006 27.9454C13.6119 27.988 13.6205 28.0309 13.629 28.0739L13.643 28.1399C13.6482 28.1629 13.6534 28.186 13.6573 28.2092C13.6684 28.2769 13.6751 28.3449 13.6813 28.413L13.6884 28.4755C13.7104 28.8954 13.6488 29.3156 13.5071 29.7116C13.3653 30.1076 13.1462 30.4717 12.8625 30.7827C12.8459 30.8016 12.8284 30.8198 12.8107 30.8379L12.7603 30.8912C12.7274 30.9267 12.6944 30.9622 12.6592 30.9967C12.5879 31.0661 12.5133 31.1335 12.4353 31.1987L12.3924 31.2343ZM9.89538 30.7398L9.92255 30.7513C9.94573 30.7604 9.96964 30.7688 9.99362 30.777L10.0441 30.7943C10.0694 30.8022 10.0956 30.8091 10.1218 30.8161L10.1733 30.8299C10.2032 30.837 10.2341 30.8428 10.2649 30.8488L10.285 31.0036L10.31 30.8578C10.3569 30.8658 10.4049 30.8726 10.454 30.8779C10.62 30.8958 10.788 30.906 10.9563 30.9134L11.1152 30.9207C11.35 30.9276 11.5681 30.929 11.7827 30.9303C11.9573 30.9314 12.1227 30.9325 12.2869 30.9358C12.344 30.8867 12.3989 30.8364 12.4517 30.7849C12.4831 30.7542 12.5126 30.7222 12.5422 30.6902L12.5974 30.6317C12.6116 30.6171 12.6258 30.6025 12.6389 30.5873C12.8968 30.3056 13.0962 29.9756 13.2255 29.6165C13.3547 29.2575 13.4114 28.8764 13.3921 28.4953L13.3856 28.4393C13.38 28.3783 13.3742 28.3173 13.3642 28.2567C13.3612 28.2395 13.3573 28.2223 13.3534 28.2052L13.3377 28.131C13.3304 28.0941 13.3232 28.057 13.3135 28.0206C13.3072 27.9969 13.2994 27.9737 13.2916 27.9504L13.2661 27.87C13.2578 27.8426 13.2496 27.8151 13.2394 27.788C13.2291 27.7602 13.2169 27.7329 13.2048 27.7055L13.1714 27.6279C13.1621 27.6052 13.1528 27.5825 13.1419 27.5602C13.1271 27.5297 13.1102 27.4998 13.0933 27.4699L13.0641 27.4172L11.7197 27.4394C11.7286 27.4531 11.7375 27.4667 11.7467 27.4803L11.6418 27.5906L11.7644 27.5072L11.8321 27.6043C11.9573 27.7398 12.0506 27.9015 12.1051 28.0775C12.1596 28.2535 12.174 28.4395 12.1472 28.6218C12.1459 28.7269 12.1375 28.8317 12.122 28.9357C12.0889 29.2346 11.9883 29.5221 11.8276 29.7766C11.6668 30.031 11.4503 30.2458 11.1942 30.4046C11.0906 30.4682 10.982 30.5234 10.8694 30.5695C10.5583 30.6865 10.2279 30.7443 9.89538 30.7398ZM11.619 27.4411L11.5748 27.488L11.6518 27.4406L11.619 27.4411Z" fill="#2B2129"/>
<path d="M11.9407 28.5557L11.4655 28.5541C10.9965 28.5526 10.5276 28.5505 10.0587 28.5477L10.0169 28.5475C9.78977 28.5468 9.57523 28.5462 9.49918 28.2818C9.46825 28.1706 9.46906 28.053 9.50153 27.9422C9.534 27.8314 9.59683 27.7319 9.68296 27.6548C9.7177 27.618 9.7531 27.5846 9.78885 27.553C9.80007 27.5431 9.81143 27.534 9.82274 27.5245C9.84831 27.5033 9.87415 27.4832 9.90024 27.4643C9.91264 27.4554 9.92498 27.4464 9.9375 27.438C9.96685 27.4183 9.99655 27.4003 10.0265 27.3835C10.0348 27.3789 10.0429 27.3735 10.0513 27.369C10.0884 27.3494 10.1262 27.3321 10.1644 27.3165C10.1784 27.3107 10.1926 27.306 10.2067 27.3008C10.2325 27.2913 10.2584 27.2825 10.2846 27.2747C10.3011 27.2698 10.3177 27.2651 10.3344 27.2608C10.3603 27.2542 10.3866 27.2485 10.413 27.2434C10.4286 27.2404 10.4441 27.2367 10.4599 27.2342C10.4993 27.2278 10.5391 27.2229 10.5796 27.2194C10.5967 27.2179 10.6141 27.2175 10.6314 27.2164C10.6581 27.215 10.6852 27.2137 10.7125 27.2135C10.7313 27.2132 10.7504 27.2135 10.7694 27.2136C10.8003 27.2141 10.8316 27.2152 10.8632 27.2169C10.8785 27.2178 10.8937 27.2183 10.9092 27.2194C10.9571 27.2229 11.0055 27.2275 11.0549 27.2336L11.0711 27.2358C11.1211 27.2423 11.1718 27.2498 11.2232 27.2584L11.2314 27.2598C11.2872 27.2693 11.3439 27.28 11.4015 27.2918C11.4094 27.313 11.4197 27.3332 11.429 27.3537C11.4362 27.3695 11.4423 27.3857 11.4501 27.401C11.4624 27.4255 11.4763 27.4492 11.4901 27.473C11.4979 27.4866 11.5049 27.5005 11.5132 27.5139C11.5293 27.5401 11.5463 27.5657 11.5634 27.5913C11.5703 27.6018 11.5768 27.6124 11.5838 27.6227C11.608 27.6582 11.6326 27.6931 11.657 27.7278C11.6796 27.7597 11.7019 27.7913 11.7237 27.823C11.7284 27.83 11.7326 27.8369 11.7374 27.8437C11.7545 27.8689 11.7714 27.894 11.7873 27.9194C11.7916 27.9261 11.7952 27.933 11.7994 27.9398C11.8152 27.9656 11.8307 27.9915 11.8448 28.0178C11.8477 28.0235 11.8502 28.0294 11.8532 28.0351C11.8675 28.0628 11.8811 28.0906 11.8929 28.1192C11.8951 28.1244 11.8966 28.1299 11.8987 28.1352C11.9103 28.1644 11.9204 28.1942 11.9288 28.2245C11.9305 28.2307 11.9313 28.2373 11.9328 28.2436C11.9403 28.2735 11.946 28.3039 11.9497 28.3345C11.9508 28.3441 11.9506 28.3542 11.9513 28.3639C11.9537 28.3923 11.9544 28.4208 11.9535 28.4493C11.9527 28.4666 11.9499 28.4848 11.9479 28.5025C11.9461 28.5202 11.9439 28.5377 11.9407 28.5557Z" fill="#2B2129"/>
<path d="M12.0654 28.7041L11.4649 28.702C10.9958 28.7005 10.5267 28.6984 10.0576 28.6956L10.0162 28.6954C9.78299 28.6947 9.46332 28.6938 9.35657 28.3226C9.31845 28.1868 9.31865 28.0431 9.35715 27.9075C9.39566 27.7718 9.47097 27.6493 9.5748 27.5536C9.61274 27.5133 9.65134 27.4769 9.69051 27.4423L9.71932 27.418C9.75605 27.3875 9.7846 27.3652 9.81346 27.3444L9.855 27.3152C9.88764 27.2933 9.92075 27.2732 9.95425 27.2545L9.98202 27.2384C10.0231 27.2167 10.0653 27.1971 10.1084 27.1796L10.144 27.1662C10.1845 27.1515 10.2134 27.1416 10.2426 27.1329L10.298 27.1175C10.3266 27.1102 10.3557 27.1039 10.3849 27.0982L10.4366 27.0882C10.4796 27.0812 10.5232 27.0759 10.5674 27.0721L10.6078 27.0697C10.6525 27.0673 10.6816 27.066 10.711 27.0656L10.7719 27.0658C10.805 27.0662 10.8382 27.0674 10.8718 27.0693L10.9203 27.0719C10.9708 27.0756 11.0217 27.0805 11.0735 27.0867C11.1424 27.0956 11.1949 27.1034 11.2486 27.1125C11.3144 27.1236 11.3726 27.1346 11.4319 27.1468L11.5123 27.1633L11.5738 27.3135C11.593 27.3541 11.6041 27.3731 11.6151 27.392L11.6299 27.4185C11.6553 27.4613 11.6712 27.4851 11.6871 27.509L11.5843 27.6227L11.707 27.5395L11.8464 27.7394C11.8787 27.7875 11.8965 27.8141 11.9134 27.8409C11.9437 27.8912 11.9606 27.9194 11.976 27.9482C12.0017 27.9989 12.0171 28.0306 12.0305 28.063C12.0466 28.1033 12.0606 28.1444 12.0724 28.1862C12.0833 28.2295 12.0917 28.2734 12.0974 28.3177L12.0996 28.3532C12.1024 28.3872 12.1032 28.4214 12.1021 28.4555C12.1013 28.4726 12.0993 28.4897 12.0972 28.5068C12.0935 28.5394 12.0909 28.5601 12.0872 28.5812L12.0654 28.7041ZM11.9411 28.4489V28.4524L11.9536 28.4495L11.9411 28.4489ZM9.78884 27.5529L9.88728 27.6636C9.85482 27.6923 9.82263 27.7226 9.79109 27.7561C9.72303 27.8147 9.67293 27.8913 9.64651 27.9771C9.6201 28.0628 9.61846 28.1543 9.64176 28.2409C9.68176 28.38 9.75347 28.3987 10.0172 28.3995L10.0594 28.3996C10.5285 28.403 10.9973 28.4052 11.4659 28.4061L11.8053 28.4073C11.8049 28.3964 11.8043 28.3857 11.8035 28.375C11.8014 28.3425 11.7964 28.3102 11.7886 28.2785C11.7815 28.2481 11.772 28.2182 11.7604 28.1892C11.7491 28.1597 11.736 28.1309 11.7213 28.1029C11.7011 28.0637 11.687 28.0403 11.6727 28.0171L11.4395 27.6729C11.4215 27.6459 11.4035 27.6189 11.3866 27.5912L11.3692 27.5608C11.3437 27.5161 11.3299 27.4922 11.3175 27.4677L11.3 27.4292L11.3067 27.4241C11.2729 27.4176 11.2394 27.4115 11.2063 27.4058C11.1489 27.3961 11.1002 27.389 11.0521 27.3828C10.9897 27.3749 10.9436 27.3705 10.8982 27.3672L10.855 27.3649C10.8253 27.3633 10.796 27.3623 10.7671 27.362L10.7144 27.3618C10.6891 27.3621 10.6643 27.3633 10.6395 27.3648L10.5921 27.3674C10.5554 27.3705 10.5192 27.3749 10.4836 27.3807L10.4413 27.3891C10.4178 27.3936 10.3944 27.3986 10.3712 27.4046L10.3267 27.417C10.3036 27.4238 10.2807 27.4318 10.2579 27.44L10.1643 27.3169L10.2206 27.4538C10.187 27.4676 10.1536 27.4828 10.1209 27.5001C10.0724 27.5279 10.0461 27.5438 10.02 27.5613L9.99113 27.5816C9.96351 27.6015 9.94042 27.6195 9.91755 27.6386L9.78884 27.5529ZM11.3896 27.3498L11.3873 27.3612L11.4206 27.3353L11.3896 27.3498Z" fill="#2B2129"/>
<path d="M11.4288 27.2297C10.8034 27.0998 10.1537 27.0568 9.63348 27.6093C9.53898 27.6944 9.47023 27.8042 9.43501 27.9263C9.3998 28.0484 9.39951 28.1778 9.43419 28.3C9.52406 28.6125 9.78534 28.6133 10.0157 28.614L10.0573 28.6142C10.5136 28.6175 10.9699 28.6196 11.4263 28.6205L11.9336 28.6223C11.9328 28.6436 11.9315 28.6646 11.9302 28.6856C11.9286 28.7116 11.9272 28.7379 11.9251 28.7635C11.9228 28.7898 11.9194 28.8154 11.9164 28.8412C11.9134 28.8662 11.9107 28.8915 11.9071 28.9158C11.9033 28.9411 11.8985 28.9657 11.894 28.9905C11.8896 29.0144 11.8856 29.0386 11.8805 29.0621C11.8753 29.0865 11.869 29.1101 11.863 29.1339C11.8573 29.1567 11.8519 29.1799 11.8455 29.2022C11.8388 29.2257 11.831 29.2483 11.8236 29.2712C11.8165 29.2929 11.8099 29.3149 11.8021 29.3361C11.794 29.3586 11.7847 29.3801 11.7758 29.402C11.7674 29.4227 11.7594 29.4436 11.7504 29.4638C11.7408 29.4851 11.7301 29.5054 11.7198 29.5262C11.7101 29.5458 11.7007 29.5659 11.6903 29.585C11.6793 29.6052 11.6672 29.6245 11.6555 29.6442C11.6444 29.6628 11.6338 29.6817 11.6221 29.6998C11.6096 29.719 11.596 29.7372 11.5828 29.7557C11.5705 29.7731 11.5586 29.791 11.5457 29.8078C11.5317 29.826 11.5165 29.8434 11.5019 29.8608C11.4883 29.8769 11.4753 29.8935 11.4612 29.9092C11.4456 29.9264 11.4289 29.9426 11.4126 29.9592C11.398 29.974 11.3839 29.9894 11.3687 30.0037C11.3515 30.0199 11.3331 30.035 11.3153 30.0505C11.2996 30.0642 11.2845 30.0783 11.2682 30.0914C11.2492 30.1067 11.2289 30.121 11.2091 30.1356C11.1927 30.1477 11.1768 30.1604 11.1599 30.172C11.138 30.1871 11.1148 30.2009 11.0921 30.2151C11.0759 30.2252 11.0603 30.2358 11.0437 30.2456C11.0184 30.2604 10.9918 30.2738 10.9655 30.2875C10.9501 30.2956 10.9354 30.3043 10.9196 30.3121C10.877 30.333 10.8331 30.3527 10.788 30.3712C10.411 30.4998 10.0124 30.553 9.61479 30.5277C9.51646 30.5277 9.41805 30.5279 9.31969 30.5303L9.28198 30.4954L9.31999 30.5305L9.18327 30.4042L9.18178 30.4028C8.69439 30.0259 8.34909 29.4957 8.20197 28.8984C8.05486 28.301 8.11456 27.6717 8.37139 27.1124C8.40074 27.0446 8.43263 26.9793 8.46634 26.9152C8.47723 26.8945 8.4893 26.8749 8.50064 26.8546C8.52437 26.8122 8.54832 26.77 8.57387 26.7295C8.58832 26.7065 8.60371 26.6845 8.61876 26.6621C8.64315 26.6259 8.66792 26.59 8.69382 26.5553C8.7105 26.5329 8.72771 26.5113 8.74497 26.4896C8.77138 26.4565 8.79845 26.4241 8.82618 26.3925C8.84422 26.372 8.86252 26.3518 8.88107 26.3319C8.91039 26.3007 8.94059 26.2706 8.97124 26.241C8.98984 26.2233 9.0083 26.205 9.02738 26.1878C9.06129 26.1571 9.09633 26.1279 9.13176 26.0992C9.149 26.0852 9.16576 26.0706 9.18335 26.0571C9.2286 26.0224 9.27533 25.9896 9.32281 25.9581C9.33171 25.9522 9.34001 25.9456 9.34894 25.9398C9.4068 25.9024 9.4662 25.8674 9.52715 25.8348C9.53756 25.8292 9.54848 25.8245 9.55898 25.8191C9.60892 25.7932 9.65956 25.7685 9.7114 25.7458C9.7311 25.7372 9.75139 25.7297 9.77136 25.7215C9.81516 25.7038 9.85925 25.6864 9.90426 25.6708C9.92743 25.6628 9.95102 25.6556 9.97449 25.6482C10.0176 25.6346 10.0611 25.6218 10.1052 25.6102C10.1302 25.6037 10.1554 25.5976 10.1806 25.5918C10.2248 25.5816 10.2695 25.5725 10.3147 25.5644C10.3402 25.5598 10.3658 25.5552 10.3916 25.5512C10.4386 25.5441 10.4861 25.5386 10.534 25.5337C10.5587 25.5312 10.5831 25.5281 10.608 25.5262C10.6614 25.5221 10.7155 25.5201 10.7699 25.5188C10.7898 25.5183 10.8094 25.5169 10.8294 25.5168C10.8844 25.5165 10.9403 25.5191 10.9963 25.5217C11.0187 25.5227 11.0408 25.5225 11.0633 25.5241C11.1418 25.5294 11.2211 25.5373 11.3011 25.5483C11.3621 25.5557 11.4235 25.5596 11.485 25.5602C11.5034 25.5607 11.5224 25.5614 11.5412 25.5621C11.5429 25.5726 11.5464 25.5814 11.5488 25.5913C11.5516 25.6031 11.5541 25.6154 11.5578 25.6264C11.5624 25.6395 11.5677 25.6522 11.5738 25.6647C11.5784 25.6746 11.5827 25.6848 11.588 25.694C11.5948 25.7053 11.6022 25.7161 11.6103 25.7266C11.6162 25.7347 11.6219 25.7433 11.6284 25.7509C11.6371 25.7609 11.6467 25.7699 11.6563 25.779C11.6632 25.7857 11.6698 25.7927 11.6771 25.7989C11.6875 25.8078 11.6987 25.8155 11.7097 25.8235C11.7171 25.8288 11.7242 25.8346 11.7319 25.8396C11.7441 25.8475 11.7567 25.8546 11.7693 25.8618C11.7766 25.866 11.7837 25.8705 11.7911 25.8745C11.8052 25.8821 11.8196 25.8891 11.8339 25.8961C11.8402 25.899 11.8463 25.9024 11.8525 25.9053C11.8729 25.915 11.8933 25.9243 11.9133 25.9333L11.9534 25.9517C12.0233 25.9839 12.0905 26.0187 12.1549 26.0561C12.1757 26.0679 12.1943 26.0818 12.2145 26.0943C12.2572 26.1209 12.3003 26.147 12.3407 26.1759C12.3618 26.191 12.381 26.208 12.4015 26.2238C12.4385 26.2524 12.476 26.2805 12.5109 26.3113C12.5302 26.3284 12.5477 26.3472 12.5663 26.3649C12.6 26.3969 12.6341 26.4286 12.6657 26.4628C12.683 26.4815 12.6986 26.5021 12.7152 26.5215C12.7458 26.557 12.7766 26.5925 12.805 26.6304C12.8212 26.6519 12.8358 26.6753 12.8513 26.6976C12.8776 26.7355 12.9042 26.7731 12.9284 26.8132C12.9451 26.8405 12.9601 26.8697 12.9759 26.8981C12.9964 26.935 13.0173 26.9716 13.0363 27.0103C13.0554 27.0489 13.0722 27.089 13.0895 27.129C13.1001 27.1532 13.1108 27.1771 13.1209 27.202L11.4288 27.2297Z" fill="#CBA58C"/>
<path d="M9.26233 30.6794L9.21839 30.6388L9.08191 30.5126C8.57052 30.1156 8.20858 29.558 8.05479 28.9302C7.90101 28.3024 7.96439 27.6412 8.23467 27.0538C8.26553 26.9825 8.29905 26.9136 8.33442 26.8464L8.35839 26.8036C8.39545 26.7379 8.4207 26.6935 8.44767 26.6508L8.48328 26.5968C8.52063 26.5414 8.5468 26.5035 8.57416 26.4669L8.62816 26.3975C8.65611 26.3625 8.68473 26.3283 8.71402 26.2949L8.77212 26.2308C8.80312 26.1977 8.83505 26.1658 8.86751 26.1346L8.92685 26.0782C8.96275 26.0457 8.99987 26.0148 9.03737 25.9844L9.09205 25.94C9.13997 25.9032 9.18934 25.8685 9.2396 25.835L9.26732 25.8158C9.32864 25.7762 9.39153 25.7391 9.45599 25.7046L9.48964 25.6879C9.54245 25.6605 9.59603 25.6344 9.65089 25.6104L9.69407 25.5926C9.76053 25.5657 9.80714 25.5475 9.85467 25.531L9.91517 25.5114C9.9743 25.4927 10.0202 25.4793 10.0667 25.467L10.1462 25.4475C10.1928 25.4368 10.2398 25.4272 10.2873 25.4187L10.3683 25.4048C10.4176 25.3973 10.4676 25.3915 10.5179 25.3864L10.5955 25.3786C10.6515 25.3743 10.7083 25.3721 10.7653 25.3707L10.8276 25.3687C10.8852 25.3685 10.9436 25.371 11.0022 25.3738L11.0722 25.3763C11.1541 25.3818 11.2368 25.3903 11.3204 25.4017C11.3755 25.4082 11.431 25.4117 11.4865 25.4121L11.6569 25.4182L11.7279 25.6378L11.7924 25.7011L12.0144 25.8171C12.089 25.8515 12.1601 25.8885 12.2284 25.928C12.2433 25.9366 12.2572 25.9458 12.2712 25.9551L12.227 26.1025L12.3051 25.9767C12.3464 26.0022 12.3875 26.0278 12.4264 26.0556C12.4416 26.0665 12.456 26.0783 12.4705 26.09L12.4006 26.2238L12.507 26.1187C12.5415 26.1454 12.5759 26.172 12.6083 26.2004C12.6224 26.2128 12.6356 26.226 12.6489 26.2392L12.5654 26.3648L12.6798 26.2691C12.7119 26.2995 12.7439 26.33 12.774 26.3626C12.7866 26.3762 12.7985 26.3906 12.8104 26.4051L12.7219 26.5302L12.8346 26.4339C12.8648 26.469 12.8949 26.5042 12.923 26.5416C12.9348 26.5574 12.946 26.574 12.9571 26.5906L12.8505 26.6975L12.979 26.6227C13.0049 26.6598 13.0306 26.697 13.0546 26.7363C13.0674 26.7573 13.0793 26.7792 13.0911 26.8011L12.9752 26.898L13.1135 26.8418C13.1324 26.8756 13.1512 26.9096 13.1687 26.9451C13.1862 26.9806 13.2024 27.0181 13.2184 27.0553L13.1189 27.1307V27.1377L13.2326 27.088L13.338 27.3464L11.414 27.378L11.3978 27.3746C10.7248 27.2349 10.1854 27.2385 9.74089 27.7107C9.66435 27.7773 9.60827 27.8642 9.57909 27.9613C9.54992 28.0584 9.54885 28.1617 9.57601 28.2593C9.62959 28.4457 9.75106 28.4654 10.0155 28.4661L10.0572 28.4663C10.5137 28.4696 10.97 28.4718 11.426 28.4727L12.087 28.4751L12.0649 28.8427L11.9136 28.8594L12.0609 28.8763L12.0423 29.0006L11.89 29.0087L12.0361 29.0346L12.0103 29.1538L11.8579 29.152L12.0019 29.1872L11.9693 29.3007L11.8171 29.2893L11.9585 29.3342L11.9191 29.4418L11.7681 29.4195L11.9059 29.4742L11.8598 29.5765L11.7108 29.5433L11.8443 29.6079L11.7915 29.7047L11.6449 29.6608L11.773 29.7353L11.7134 29.8267L11.5707 29.7719L11.6926 29.8562L11.6266 29.9417L11.4883 29.8762L11.6032 29.9697L11.5307 30.0496L11.3976 29.9737L11.5048 30.0761L11.4263 30.1497L11.2988 30.0644L11.3975 30.1748L11.3607 30.2064C11.345 30.219 11.3286 30.231 11.3122 30.243L11.1913 30.1483L11.2812 30.2659L11.2432 30.2938C11.2248 30.3064 11.2055 30.3184 11.1862 30.3303L11.0735 30.2264L11.1543 30.3505L11.1179 30.3732C11.0957 30.3862 11.0725 30.3983 11.0492 30.4103L10.9466 30.2973L11.0183 30.4268L10.9844 30.4447C10.9389 30.4671 10.892 30.4881 10.8436 30.5079C10.3519 30.6594 9.83591 30.7171 9.32274 30.6779L9.26233 30.6794ZM9.32167 25.958L9.40395 26.0811C9.35926 26.1107 9.31541 26.1416 9.27284 26.1743L9.24444 26.1973C9.19103 26.2409 9.15798 26.2683 9.12606 26.2972L9.08419 26.3368C9.0444 26.3753 9.01595 26.4035 8.98836 26.4329L8.93664 26.49C8.91045 26.5198 8.88492 26.5503 8.86006 26.5816L8.81182 26.6435C8.78734 26.6763 8.76399 26.7102 8.74093 26.7445L8.69848 26.8081C8.67429 26.8466 8.65166 26.8864 8.62923 26.9265L8.59659 26.9838C8.56466 27.0445 8.53428 27.1066 8.50654 27.1709C8.26333 27.7008 8.2069 28.2971 8.3464 28.863C8.48591 29.4289 8.81316 29.9312 9.275 30.2882L9.37552 30.3809C9.83251 30.4165 10.2922 30.3667 10.7308 30.2341C10.7728 30.2169 10.8136 30.1986 10.8532 30.1791L10.8957 30.1563C10.9308 30.1381 10.9498 30.1283 10.968 30.1177L11.4724 29.6541L11.702 29.1615L11.7743 28.7697L11.4249 28.7684C10.9684 28.7669 10.5119 28.7648 10.0554 28.762L10.0143 28.7618C9.77435 28.7612 9.41137 28.7601 9.29076 28.3408C9.24898 28.1939 9.24871 28.0385 9.28995 27.8915C9.3312 27.7445 9.41237 27.6118 9.5245 27.5079C10.092 26.9053 10.8108 26.9521 11.4419 27.0814L12.8932 27.0576C12.8806 27.0331 12.8673 27.0093 12.854 26.9855L12.8299 26.9417C12.8204 26.9242 12.811 26.9066 12.8008 26.8899C12.78 26.8558 12.7575 26.8236 12.735 26.7913L12.6853 26.7189C12.6611 26.6867 12.6351 26.6566 12.6091 26.6264L12.5557 26.5629C12.5301 26.5352 12.5028 26.5094 12.4756 26.4836L12.4119 26.4221C12.3845 26.3978 12.3552 26.3755 12.3259 26.3531L12.2533 26.2959C12.2199 26.272 12.1843 26.2501 12.1488 26.2282L12.0797 26.184C12.019 26.1489 11.9559 26.1162 11.8902 26.0858L11.6222 25.9435C11.6063 25.9321 11.593 25.9224 11.5805 25.9119L11.5575 25.8905C11.5383 25.8721 11.5262 25.8603 11.5151 25.8474L11.4933 25.8192C11.4808 25.8027 11.4692 25.7855 11.4585 25.7678L11.4409 25.7326C11.4365 25.723 11.4325 25.7144 11.429 25.7063C11.379 25.705 11.3292 25.7011 11.2796 25.6947C11.2031 25.6841 11.1273 25.6765 11.0522 25.6715L10.9883 25.6693C10.9349 25.6668 10.8816 25.6644 10.8291 25.6646L10.7723 25.6665C10.7207 25.6678 10.6692 25.6695 10.6184 25.6735L10.5723 25.6781C10.5028 25.6853 10.4576 25.6905 10.4131 25.6973L10.3438 25.7091C10.2974 25.7175 10.255 25.726 10.2132 25.7357L10.1419 25.7532C10.1003 25.7641 10.0591 25.7762 10.0183 25.7891L9.95196 25.8104C9.90956 25.8252 9.86796 25.8414 9.82666 25.8583L9.77011 25.8811C9.72124 25.9025 9.67356 25.9258 9.62651 25.9502L9.52625 25.8346L9.59648 25.9648C9.53912 25.9956 9.48321 26.0285 9.42875 26.0637L9.32167 25.958Z" fill="#2B2129"/>
<path d="M32.007 29.3328C31.7806 30.8057 30.5202 31.5157 29.5004 31.852H11.3613C11.3647 31.8461 11.3677 31.8397 11.3711 31.834C11.3783 31.8223 11.3856 31.811 11.3933 31.8002C11.4023 31.7875 11.4116 31.7753 11.4212 31.7635C11.4295 31.7535 11.438 31.7435 11.4468 31.7341C11.4571 31.7232 11.4678 31.7127 11.4788 31.7026C11.4881 31.694 11.4974 31.6853 11.5071 31.6773C11.5187 31.6676 11.5308 31.6585 11.5431 31.6496C11.5531 31.6422 11.5629 31.6348 11.5733 31.6279C11.5863 31.6192 11.5998 31.611 11.6133 31.6029C11.6236 31.5967 11.6337 31.5903 11.6443 31.5844C11.6592 31.5761 11.6743 31.5683 11.6895 31.5605C11.6995 31.5554 11.7092 31.5501 11.7192 31.5451C11.7371 31.5363 11.7555 31.5279 11.7739 31.5195C11.7816 31.5159 11.7891 31.5122 11.7969 31.5088C11.8231 31.4969 11.8496 31.4852 11.8763 31.4737C11.9096 31.4591 11.943 31.4442 11.9764 31.4289C12.1066 31.3764 12.2252 31.2989 12.3256 31.2009C12.3434 31.1822 12.3601 31.1624 12.3756 31.1417C12.4537 31.0769 12.5282 31.0101 12.5992 30.9412L12.6048 30.9353C13.6059 29.9588 13.8907 28.5945 13.3321 27.4589C13.2926 27.3784 13.2489 27.2992 13.201 27.2211C13.0332 26.7573 12.7229 26.3582 12.3142 26.0807C12.2084 26.0087 12.097 25.9453 11.9811 25.891L11.9406 25.8725C11.9209 25.8637 11.9013 25.8548 11.882 25.8456L11.8691 25.8393C11.8543 25.8322 11.8398 25.8251 11.8257 25.8176C11.8193 25.8142 11.8132 25.8105 11.807 25.807C11.7953 25.8005 11.7837 25.7939 11.7726 25.7869C11.7659 25.7826 11.7597 25.7779 11.7532 25.7733C11.7434 25.7665 11.7336 25.7596 11.7245 25.7522C11.718 25.747 11.7122 25.7412 11.7061 25.7355C11.6979 25.728 11.6898 25.7202 11.6824 25.7119C11.6767 25.7055 11.6717 25.6986 11.6665 25.6918C11.6598 25.6831 11.6536 25.674 11.6478 25.6646C11.6433 25.657 11.6393 25.6488 11.6354 25.6407C11.6303 25.6303 11.6259 25.6196 11.6221 25.6088C11.619 25.5997 11.6162 25.5902 11.6139 25.5805C11.6124 25.5749 11.6116 25.5687 11.6104 25.5628L13.4943 25.5624C18.3052 25.5617 23.116 25.5607 27.9268 25.5595C28.1372 25.5595 28.3509 25.5551 28.5576 25.551C28.6561 25.549 28.7547 25.5472 28.8532 25.5456C30.5606 25.6188 31.7358 26.5546 31.9969 28.0492C32.0711 28.4736 32.0745 28.9073 32.007 29.3328Z" fill="#D7AF94"/>
<path d="M29.5238 32H11.1074L11.2314 31.7796C11.2436 31.7574 11.257 31.7359 11.2714 31.7151C11.2825 31.6993 11.2941 31.6841 11.3062 31.6695C11.3165 31.657 11.3269 31.6447 11.3379 31.633C11.3507 31.6195 11.3639 31.6066 11.3774 31.5941L11.4117 31.5635C11.4256 31.552 11.4401 31.541 11.4547 31.5303L11.7115 31.385L11.914 31.2945C12.0264 31.2495 12.1292 31.1835 12.2166 31.0999C12.2308 31.085 12.2441 31.0693 12.2565 31.0529L12.2802 31.028C12.3552 30.9658 12.4269 30.9015 12.4952 30.8352C13.4545 29.8991 13.7284 28.6016 13.1984 27.5241C13.1608 27.4476 13.1193 27.3723 13.0739 27.2984C12.9756 27.0203 12.8228 26.7646 12.6243 26.546C12.4259 26.3274 12.1858 26.1504 11.9181 26.0253L11.6675 25.8947C11.6548 25.8858 11.642 25.8766 11.6299 25.8668L11.6045 25.844C11.5929 25.8333 11.5816 25.8222 11.571 25.8104L11.5497 25.7841C11.539 25.7701 11.529 25.7556 11.5198 25.7405L11.501 25.7048C11.4936 25.6895 11.487 25.6736 11.4814 25.6575L11.4693 25.6167L11.4348 25.4404L11.6098 25.4149L27.9263 25.4116C28.1329 25.4116 28.3428 25.4074 28.546 25.4034L28.8504 25.3978C30.6412 25.4743 31.8687 26.456 32.1426 28.0239C32.2196 28.464 32.2232 28.9139 32.1531 29.3552C31.9153 30.9027 30.6043 31.6435 29.5465 31.9924L29.5238 32ZM11.7341 31.7041H29.4759C30.451 31.3782 31.6464 30.6992 31.8599 29.3103C31.925 28.9007 31.9217 28.4831 31.8503 28.0746C31.602 26.6536 30.4791 25.7636 28.8464 25.6934L28.5668 25.6988C28.3468 25.7032 28.135 25.7074 27.9264 25.7075L11.9431 25.7106L12.0424 25.7564C12.1657 25.814 12.2842 25.8814 12.3967 25.958C12.8307 26.2526 13.1605 26.6762 13.3393 27.1685C13.3857 27.241 13.4277 27.3163 13.465 27.3939C14.0525 28.5879 13.7553 30.0195 12.7082 31.041C12.6329 31.1145 12.5594 31.1807 12.483 31.2447C12.467 31.265 12.4503 31.2843 12.4329 31.3026C12.3194 31.4142 12.1853 31.5028 12.0379 31.5633L11.7841 31.6779L11.6892 31.5604L11.7569 31.692L11.7341 31.7041ZM11.6739 31.7041H11.7077L11.6127 31.6029L11.6739 31.7041ZM11.5827 31.7041H11.6035L11.5427 31.6496L11.5827 31.7041Z" fill="#2B2129"/>
<path d="M26.2528 14.9006C26.0668 14.9935 25.8581 15.0313 25.6513 15.0096C23.7909 14.9962 21.8992 14.9983 20.0697 15.0004C19.3852 15.0012 18.7007 15.0017 18.0162 15.0019C17.3357 15.0015 16.6549 15.0009 15.9736 15.0002C15.5262 14.9996 15.0755 14.9991 14.6214 14.9987C13.2607 14.9977 11.8786 14.9991 10.5139 15.0101C10.2965 15.0333 10.077 14.9941 9.88114 14.8972C9.81655 14.8455 9.76661 14.7779 9.73625 14.7011C9.70589 14.6242 9.69617 14.5408 9.70804 14.459C9.699 14.3849 9.70931 14.3096 9.73795 14.2406C9.76659 14.1715 9.81261 14.111 9.87155 14.0649C9.88646 14.0548 9.90202 14.0458 9.91814 14.0378C10.1039 13.9681 10.3026 13.9395 10.5005 13.954H10.5116C15.8819 13.9661 20.8332 13.9657 25.6488 13.953C25.8575 13.9323 26.0678 13.9709 26.2555 14.0642C26.3169 14.1133 26.3643 14.1774 26.3933 14.2502C26.4222 14.3231 26.4317 14.4023 26.4207 14.4799C26.4317 14.5585 26.4221 14.6387 26.3926 14.7124C26.3632 14.7862 26.315 14.8511 26.2528 14.9006Z" fill="#C2956D"/>
<path d="M10.4875 15.1582C10.2491 15.1806 10.0094 15.1325 9.79835 15.0198C9.71438 14.954 9.64849 14.868 9.60681 14.7698C9.56513 14.6717 9.54902 14.5647 9.55998 14.4587C9.55039 14.3603 9.56638 14.2612 9.60639 14.1708C9.64641 14.0803 9.7091 14.0017 9.78844 13.9425C9.80882 13.9288 9.83009 13.9164 9.85211 13.9055C10.0581 13.824 10.2798 13.79 10.5008 13.8061C15.8652 13.8181 20.8165 13.8179 25.6486 13.8051C25.8873 13.7815 26.1277 13.8291 26.3392 13.9419C26.4122 14.012 26.4703 14.0961 26.5098 14.1891C26.5494 14.2822 26.5696 14.3822 26.5693 14.4833C26.569 14.5844 26.5481 14.6843 26.508 14.7771C26.4679 14.8699 26.4094 14.9537 26.3359 15.0233C26.126 15.1351 25.8873 15.1818 25.6506 15.1575C23.7822 15.1441 21.8952 15.1463 20.0702 15.1483L18.0165 15.15L14.6216 15.1467C13.2612 15.1458 11.8797 15.1472 10.5152 15.1581L10.4875 15.1582ZM10.5116 14.102C10.3331 14.0884 10.1537 14.1116 9.98462 14.1702C9.97444 14.1753 9.96459 14.181 9.95516 14.1873C9.90956 14.2182 9.85725 14.2771 9.85668 14.4595C9.85618 14.673 9.91089 14.7387 9.96445 14.7748C10.1363 14.852 10.3257 14.8823 10.5132 14.8623C11.878 14.8513 13.2607 14.85 14.6218 14.8509L18.0166 14.8541L20.0698 14.8525C21.8953 14.8504 23.783 14.8483 25.6525 14.8617C25.8294 14.8805 26.0081 14.8517 26.17 14.7781C26.2206 14.7441 26.2724 14.682 26.2725 14.4798C26.2727 14.2816 26.2221 14.2203 26.1723 14.1866C26.0082 14.1132 25.8277 14.0837 25.6486 14.101C20.8168 14.1137 15.8653 14.114 10.5116 14.102Z" fill="#2B2129"/>
<path d="M10.4576 19.8059H10.467C15.5611 19.8201 20.6761 19.82 25.6701 19.8057H25.6801C26.3026 19.8057 26.4119 19.9751 26.4204 20.3529C26.432 20.4283 26.4235 20.5053 26.3958 20.5764C26.3682 20.6474 26.3223 20.71 26.2629 20.7579C26.0674 20.8565 25.8473 20.8956 25.6297 20.8704C23.7828 20.8576 21.905 20.8596 20.089 20.8615C18.7357 20.863 17.3823 20.863 16.029 20.8615C15.5753 20.861 15.1183 20.8605 14.658 20.8601C13.2783 20.8593 11.8768 20.8606 10.4928 20.8704C10.2792 20.8939 10.0633 20.8553 9.87116 20.7592C9.81049 20.7107 9.76367 20.6472 9.7354 20.575C9.70714 20.5028 9.69842 20.4245 9.71014 20.3479C9.71527 19.9811 9.82867 19.8059 10.4576 19.8059Z" fill="#C2956D"/>
<path d="M10.4577 21.0185C10.2256 21.0405 9.99214 20.9926 9.78754 20.881C9.70737 20.8183 9.6446 20.7363 9.60517 20.6426C9.56575 20.5489 9.55099 20.4467 9.56228 20.3457C9.56931 19.8444 9.8121 19.658 10.4581 19.658H10.4675C15.5565 19.6721 20.6712 19.6721 25.6703 19.6578C26.3253 19.6578 26.5578 19.8388 26.5693 20.3496C26.5821 20.4495 26.5683 20.551 26.5295 20.644C26.4906 20.737 26.428 20.8182 26.3479 20.8795C26.1282 20.9982 25.8771 21.0467 25.6289 21.0182C23.7745 21.0054 21.9013 21.0075 20.0897 21.0093C18.7363 21.0108 17.3828 21.0108 16.0294 21.0093L14.6583 21.008C13.2789 21.0072 11.8779 21.0085 10.4943 21.0183C10.4819 21.0185 10.4697 21.0185 10.4577 21.0185ZM10.4581 19.8059V19.9538C9.86453 19.9538 9.86242 20.1029 9.85895 20.3499C9.85622 20.5427 9.90642 20.6034 9.95577 20.6373C10.1237 20.7127 10.3088 20.7421 10.4919 20.7225C11.8766 20.7127 13.2784 20.7113 14.6586 20.7121L16.0297 20.7135C17.3831 20.715 18.7364 20.715 20.0895 20.7135C21.9016 20.7115 23.7755 20.7095 25.6313 20.7224C25.8183 20.7435 26.0076 20.7138 26.179 20.6364C26.2249 20.6046 26.2771 20.5441 26.2727 20.3564C26.2668 20.0967 26.2637 19.9537 25.6807 19.9537C20.6716 19.968 15.5562 19.9681 10.4671 19.9539L10.4581 19.8059Z" fill="#2B2129"/>
<path d="M10.4552 16.8806H10.4648C15.5484 16.8946 20.6635 16.8946 25.6682 16.8806H25.6784C26.3029 16.8806 26.4122 17.0478 26.4199 17.4207C26.4312 17.496 26.4224 17.5728 26.3944 17.6436C26.3664 17.7143 26.3202 17.7764 26.2604 17.8237C26.0655 17.9198 25.8471 17.9585 25.6309 17.9353C23.7653 17.923 21.8684 17.9249 20.0343 17.9268C18.6834 17.9282 17.3325 17.9282 15.9815 17.9268C14.1828 17.9249 12.3226 17.9229 10.4935 17.9354C10.2798 17.959 10.0637 17.9206 9.87126 17.8248C9.81102 17.7769 9.76441 17.7142 9.73605 17.6428C9.70769 17.5714 9.69859 17.4939 9.70964 17.4179C9.71501 17.0542 9.82824 16.8806 10.4552 16.8806Z" fill="#C2956D"/>
<path d="M10.4542 18.0834C10.2239 18.1039 9.99269 18.0564 9.78921 17.9469C9.70819 17.8858 9.64464 17.8045 9.60491 17.7113C9.56517 17.6181 9.55063 17.5161 9.56274 17.4155C9.57012 16.9177 9.81241 16.7327 10.4566 16.7327H10.4662C15.5508 16.7467 20.6657 16.7467 25.6693 16.7327C26.3264 16.7327 26.5592 16.9119 26.5697 17.4177C26.5822 17.5176 26.568 17.619 26.5287 17.7117C26.4894 17.8044 26.4262 17.8851 26.3457 17.9458C26.1266 18.0613 25.878 18.1091 25.6315 18.0832C23.7525 18.0709 21.8631 18.0728 20.0359 18.0747C18.6849 18.0761 17.3339 18.0761 15.9829 18.0747H15.9397C14.1551 18.0729 12.3099 18.071 10.496 18.0834C10.4819 18.0834 10.4679 18.0834 10.4542 18.0834ZM10.4566 16.8806V17.0286C9.86523 17.0286 9.86303 17.1759 9.85938 17.4199C9.85656 17.61 9.90964 17.6707 9.9562 17.7023C10.1244 17.7778 10.3098 17.8071 10.4932 17.7873C12.3089 17.7749 14.1547 17.7768 15.9398 17.7786H15.983C17.3338 17.7801 18.6846 17.7801 20.0354 17.7786C21.8631 17.7767 23.7531 17.7748 25.6332 17.7871C25.8192 17.8064 26.007 17.7768 26.178 17.7013C26.2242 17.6698 26.2768 17.6096 26.2729 17.4235C26.2677 17.1687 26.2648 17.0283 25.6797 17.0283C20.6659 17.0424 15.5505 17.0424 10.4657 17.0283L10.4566 16.8806Z" fill="#2B2129"/>
<path d="M26.2619 23.6845C26.1034 23.7683 25.9246 23.8065 25.7456 23.795C25.7094 23.7958 25.6713 23.796 25.6313 23.7956C23.7833 23.7829 21.9044 23.7849 20.0875 23.7867C18.7368 23.7881 17.3862 23.7881 16.0357 23.7867C14.2195 23.7848 12.3413 23.7827 10.4942 23.7956C10.2798 23.8188 10.0633 23.7805 9.86997 23.6852C9.81005 23.6374 9.76373 23.5747 9.73562 23.5035C9.70751 23.4322 9.69859 23.3549 9.70975 23.2792C9.71568 22.9149 9.82893 22.7409 10.4552 22.7409H10.4648C13.0026 22.7479 15.5503 22.7515 18.0901 22.7514C20.6299 22.7514 23.1618 22.7479 25.6679 22.7408H25.6778C26.3029 22.7408 26.4123 22.9082 26.4202 23.2817C26.4316 23.3568 26.4229 23.4335 26.3951 23.5042C26.3674 23.575 26.3214 23.6371 26.2619 23.6845Z" fill="#C2956D"/>
<path d="M10.4596 23.9438C10.2265 23.9649 9.99228 23.9175 9.78585 23.8075C9.70515 23.7463 9.64192 23.6651 9.60245 23.5721C9.56298 23.479 9.54865 23.3772 9.56088 23.2768C9.56901 22.7784 9.81127 22.593 10.4547 22.593C13.0024 22.6001 15.5474 22.6036 18.0896 22.6035C20.6293 22.6035 23.161 22.6 25.6671 22.5929C26.3244 22.5929 26.5575 22.7724 26.568 23.2786C26.5806 23.3784 26.5666 23.4797 26.5275 23.5723C26.4883 23.665 26.4254 23.7458 26.3451 23.8065C26.1635 23.9081 25.9564 23.9554 25.7485 23.9429C25.7107 23.9437 25.671 23.9439 25.6293 23.9435C23.7912 23.9309 21.9214 23.9328 20.1131 23.9346C18.7364 23.936 17.3857 23.9361 16.0351 23.9346C14.2133 23.9327 12.3383 23.9307 10.4947 23.9435C10.4829 23.9437 10.4712 23.9438 10.4596 23.9438ZM10.4639 22.8889C9.86397 22.8889 9.86159 23.0367 9.85756 23.2816C9.85459 23.4713 9.90705 23.5317 9.95319 23.5631C10.1223 23.6382 10.3083 23.6674 10.4924 23.6477C12.3374 23.6348 14.2131 23.6369 16.0268 23.6389C17.3859 23.6403 18.7363 23.6403 20.0869 23.6389C21.9216 23.6369 23.7921 23.635 25.6318 23.6477C25.6706 23.6481 25.7071 23.6479 25.7418 23.6471C25.8919 23.6571 26.042 23.6279 26.1774 23.5625C26.2232 23.5312 26.2753 23.4713 26.2714 23.2849C26.2661 23.0296 26.2631 22.8889 25.6774 22.8889C23.1542 22.896 20.6174 22.8995 18.0671 22.8995C15.5345 22.8995 12.9944 22.896 10.4639 22.8889Z" fill="#2B2129"/>
<path d="M26.2619 11.9714C26.1034 12.0552 25.9246 12.0934 25.7456 12.0819C25.7094 12.0827 25.6713 12.0829 25.6313 12.0825C23.7833 12.0698 21.9044 12.0718 20.0875 12.0736C18.7368 12.075 17.3862 12.075 16.0357 12.0736C14.2195 12.0717 12.3413 12.0697 10.4942 12.0825C10.2798 12.1057 10.0633 12.0674 9.86997 11.9721C9.81005 11.9243 9.76373 11.8616 9.73562 11.7904C9.70751 11.7191 9.69859 11.6418 9.70975 11.5661C9.71568 11.2018 9.82893 11.0278 10.4552 11.0278H10.4648C13.0026 11.0349 15.5503 11.0384 18.0901 11.0383C20.6299 11.0383 23.1618 11.0348 25.6679 11.0277H25.6778C26.3029 11.0277 26.4123 11.1951 26.4202 11.5686C26.4316 11.6436 26.4229 11.7204 26.3951 11.7911C26.3674 11.8618 26.3214 11.924 26.2619 11.9714Z" fill="#C2956D"/>
<path d="M10.4597 12.2307C10.2265 12.2518 9.99229 12.2044 9.78585 12.0944C9.70515 12.0332 9.64192 11.952 9.60245 11.8589C9.56298 11.7659 9.54865 11.6641 9.56089 11.5637C9.56902 11.0653 9.81127 10.8799 10.4547 10.8799C13.0024 10.887 15.5474 10.8905 18.0896 10.8904C20.6293 10.8904 23.161 10.8869 25.6671 10.8798C26.3244 10.8798 26.5575 11.0593 26.568 11.5655C26.5806 11.6653 26.5666 11.7666 26.5275 11.8593C26.4883 11.9519 26.4254 12.0327 26.3451 12.0934C26.1635 12.195 25.9564 12.2423 25.7485 12.2297C25.7107 12.2306 25.671 12.2308 25.6293 12.2304C23.7912 12.2178 21.9214 12.2197 20.1131 12.2215C18.7364 12.2229 17.3857 12.223 16.0351 12.2215C14.2133 12.2196 12.3383 12.2175 10.4947 12.2304C10.4829 12.2306 10.4712 12.2307 10.4597 12.2307ZM10.4639 11.1758C9.86397 11.1758 9.8616 11.3236 9.85756 11.5685C9.85459 11.7582 9.90705 11.8186 9.95319 11.85C10.1223 11.9251 10.3083 11.9543 10.4924 11.9346C12.3374 11.9217 14.2131 11.9237 16.0268 11.9258C17.3859 11.9272 18.7363 11.9272 20.0869 11.9258C21.9216 11.9238 23.7921 11.9219 25.6318 11.9346C25.6706 11.935 25.7071 11.9348 25.7418 11.934C25.8919 11.944 26.042 11.9148 26.1774 11.8494C26.2232 11.8181 26.2753 11.7582 26.2714 11.5718C26.2661 11.3164 26.2631 11.1758 25.6774 11.1758C23.1532 11.1829 20.6154 11.1864 18.0639 11.1864C15.5324 11.1863 12.9935 11.1828 10.4639 11.1758Z" fill="#2B2129"/>
<path d="M26.2619 9.04612C26.1034 9.12991 25.9246 9.16816 25.7456 9.15661C25.7094 9.15744 25.6713 9.15765 25.6313 9.15723C23.7833 9.14451 21.9044 9.14655 20.0875 9.14835C18.7368 9.14972 17.3862 9.14972 16.0357 9.14835C14.2195 9.1464 12.3413 9.14436 10.4942 9.15723C10.2798 9.18039 10.0633 9.1421 9.86997 9.04683C9.81005 8.99899 9.76373 8.93634 9.73562 8.8651C9.70751 8.79387 9.69859 8.71654 9.70975 8.6408C9.71568 8.27652 9.82893 8.10256 10.4552 8.10256H10.4648C13.0026 8.10958 15.5503 8.1131 18.0901 8.11307C20.6299 8.11304 23.1618 8.10949 25.6679 8.10242H25.6778C26.3029 8.10242 26.4123 8.26981 26.4202 8.64326C26.4316 8.71836 26.4229 8.79512 26.3952 8.86584C26.3674 8.93656 26.3214 8.99874 26.2619 9.04612Z" fill="#C2956D"/>
<path d="M10.4597 9.30542C10.2265 9.32657 9.99229 9.27918 9.78585 9.1691C9.70515 9.10794 9.64192 9.02677 9.60245 8.93367C9.56298 8.84057 9.54865 8.73878 9.56089 8.63844C9.56901 8.14 9.81127 7.95468 10.4547 7.95468C13.0024 7.9617 15.5474 7.9652 18.0896 7.96518C20.6293 7.96518 23.161 7.9616 25.6671 7.95453C26.3244 7.95453 26.5575 8.13396 26.568 8.64024C26.5806 8.74001 26.5666 8.84131 26.5275 8.93398C26.4883 9.02665 26.4254 9.10741 26.3451 9.16815C26.1635 9.26973 25.9564 9.31706 25.7485 9.3045C25.7107 9.30535 25.671 9.30557 25.6293 9.30515C23.7912 9.29249 21.9214 9.29447 20.1131 9.29628C18.7364 9.29767 17.3857 9.2977 16.0351 9.29628C14.2133 9.29432 12.3383 9.29231 10.4947 9.30515C10.4829 9.30536 10.4712 9.30542 10.4597 9.30542ZM10.4639 8.25057C9.86397 8.25057 9.86159 8.39852 9.85756 8.64326C9.85459 8.8329 9.90705 8.89332 9.95319 8.92475C10.1223 8.99981 10.3083 9.029 10.4924 9.00937C12.3374 8.99647 14.2131 8.99848 16.0268 9.0005C17.3859 9.00195 18.7363 9.00192 20.0869 9.0005C21.9216 8.99857 23.7921 8.99659 25.6318 9.00937C25.6706 9.00973 25.7071 9.00955 25.7418 9.00878C25.8919 9.01869 26.042 8.98953 26.1774 8.92416C26.2232 8.89282 26.2753 8.83296 26.2715 8.64651C26.2661 8.39118 26.2631 8.25052 25.6774 8.25052C23.1542 8.25762 20.6174 8.26117 18.0672 8.26117C15.5345 8.26108 12.9944 8.25759 10.4639 8.25057Z" fill="#2B2129"/>
<path d="M26.2619 6.12089C26.1034 6.20467 25.9246 6.24292 25.7456 6.23138C25.7094 6.23219 25.6713 6.23239 25.6313 6.232C23.7833 6.21928 21.9044 6.22132 20.0875 6.22312C18.7368 6.2245 17.3862 6.2245 16.0357 6.22312C14.2195 6.22117 12.3413 6.21913 10.4942 6.232C10.2798 6.25514 10.0633 6.21684 9.86997 6.1216C9.81005 6.07375 9.76373 6.01109 9.73562 5.93985C9.70751 5.86862 9.69859 5.79128 9.70975 5.71554C9.71568 5.35126 9.82893 5.1773 10.4552 5.1773H10.4648C13.0026 5.18435 15.5503 5.18784 18.0901 5.18784C20.6299 5.18784 23.1618 5.18426 25.6679 5.17719H25.6778C26.3029 5.17719 26.4123 5.34457 26.4202 5.71803C26.4316 5.79312 26.4229 5.86989 26.3951 5.94061C26.3674 6.01133 26.3214 6.0735 26.2619 6.12089Z" fill="#C2956D"/>
<path d="M10.4597 6.38016C10.2265 6.40132 9.9923 6.35393 9.78585 6.24384C9.70515 6.18269 9.64191 6.10152 9.60244 6.00843C9.56298 5.91533 9.54865 5.81354 9.56089 5.7132C9.56902 5.21474 9.81128 5.02942 10.4547 5.02942C13.0024 5.03646 15.5474 5.03997 18.0896 5.03995C20.6293 5.03995 23.161 5.03637 25.6671 5.0293C26.3244 5.0293 26.5575 5.20873 26.568 5.71501C26.5806 5.81478 26.5666 5.91608 26.5275 6.00875C26.4884 6.10142 26.4255 6.18218 26.3451 6.24292C26.1635 6.34448 25.9564 6.39181 25.7485 6.37927C25.7108 6.3801 25.671 6.38032 25.6293 6.37992C23.7901 6.36726 21.9191 6.36921 20.1098 6.37104C18.7364 6.37246 17.3857 6.37249 16.0351 6.37104C14.2133 6.36909 12.3383 6.36708 10.4947 6.37992C10.4829 6.3801 10.4712 6.38016 10.4597 6.38016ZM10.4639 5.32531C9.86397 5.32531 9.8616 5.47326 9.85756 5.718C9.85459 5.90767 9.90705 5.96806 9.95319 5.99951C10.1223 6.07456 10.3083 6.10375 10.4924 6.08411C12.3374 6.07121 14.2131 6.07322 16.0268 6.07524C17.3859 6.07671 18.7363 6.07669 20.0869 6.07524C21.9194 6.07331 23.7909 6.07136 25.6318 6.08411C25.6706 6.0845 25.7071 6.08429 25.7418 6.08352C25.8919 6.09344 26.042 6.06428 26.1774 5.99892C26.2232 5.96759 26.2753 5.90773 26.2715 5.72128C26.2661 5.46592 26.2632 5.32528 25.6774 5.32528C23.1542 5.33238 20.6175 5.33594 18.0672 5.33594C15.5345 5.33585 12.9944 5.33233 10.4639 5.32531Z" fill="#2B2129"/>
</svg>
