<svg width="15" height="16" viewBox="0 0 15 16" fill="none" xmlns="http://www.w3.org/2000/svg">
<path d="M14.0309 14.862C13.6734 15.2195 13.1372 15.2195 12.7797 14.862L10.0093 12.0915C7.59628 13.8789 4.28959 13.7896 2.05534 11.7341C-0.447025 9.41044 -0.625765 5.29942 1.78723 2.79705C4.20022 0.294693 8.22187 0.205323 10.7242 2.70768C12.9585 4.94194 13.1372 8.42737 11.2605 10.8404L14.0309 13.6108C14.3884 13.9683 14.3884 14.5045 14.0309 14.862ZM9.83053 4.49509C8.04313 1.99272 4.37896 1.99272 2.59156 4.49509C1.42975 6.01438 1.42975 8.24863 2.59156 9.76792C4.37896 12.2703 8.04313 12.2703 9.83053 9.76792C10.9923 8.15926 10.9923 6.01438 9.83053 4.49509Z" fill="#666666"/>
</svg>
