<svg width="16" height="14" viewBox="0 0 16 14" fill="none" xmlns="http://www.w3.org/2000/svg">
<path d="M6.14314 5.75056H14.7146C14.7931 5.75056 14.8574 5.68627 14.8574 5.6077V4.6077C14.8574 4.52913 14.7931 4.46484 14.7146 4.46484H6.14314C6.06457 4.46484 6.00028 4.52913 6.00028 4.6077V5.6077C6.00028 5.68627 6.06457 5.75056 6.14314 5.75056ZM6.00028 9.39342C6.00028 9.47199 6.06457 9.53627 6.14314 9.53627H14.7146C14.7931 9.53627 14.8574 9.47199 14.8574 9.39342V8.39342C14.8574 8.31484 14.7931 8.25056 14.7146 8.25056H6.14314C6.06457 8.25056 6.00028 8.31484 6.00028 8.39342V9.39342ZM15.0003 0.714844H1.00028C0.921708 0.714844 0.857422 0.779129 0.857422 0.857701V1.8577C0.857422 1.93627 0.921708 2.00056 1.00028 2.00056H15.0003C15.0789 2.00056 15.1431 1.93627 15.1431 1.8577V0.857701C15.1431 0.779129 15.0789 0.714844 15.0003 0.714844ZM15.0003 12.0006H1.00028C0.921708 12.0006 0.857422 12.0648 0.857422 12.1434V13.1434C0.857422 13.222 0.921708 13.2863 1.00028 13.2863H15.0003C15.0789 13.2863 15.1431 13.222 15.1431 13.1434V12.1434C15.1431 12.0648 15.0789 12.0006 15.0003 12.0006ZM0.918136 7.12377L3.70921 9.32199C3.81278 9.40413 3.96635 9.33092 3.96635 9.19877V4.80234C3.96635 4.6702 3.81457 4.59699 3.70921 4.67913L0.918136 6.87734C0.899369 6.89194 0.884182 6.91062 0.873736 6.93197C0.863289 6.95333 0.857859 6.97679 0.857859 7.00056C0.857859 7.02433 0.863289 7.04779 0.873736 7.06914C0.884182 7.0905 0.899369 7.10918 0.918136 7.12377V7.12377Z" fill="#999195"/>
</svg>
