<svg width="20" height="20" viewBox="0 0 20 20" fill="none" xmlns="http://www.w3.org/2000/svg">
<circle cx="10" cy="10" r="8.25" stroke="#999195" stroke-width="1.5"/>
<path d="M13.2454 11.6917C13.2454 10.9458 13.0402 10.5999 12.7032 10.3296C12.542 10.1999 12.3369 10.0702 11.9266 9.85398C11.4724 9.61613 11.0181 9.39994 10.5492 9.17294C9.91915 8.88104 9.42095 8.65404 9.28907 8.44863C9.2451 8.37297 9.2158 8.25405 9.2158 8.05947C9.2158 7.7027 9.20115 7.30275 9.86053 7.30275C10.1682 7.30275 10.5199 7.33516 10.5932 7.60542C10.6225 7.71354 10.6225 7.74595 10.6225 7.91892V8.48107H12.9963C13.0109 7.89732 13.0696 7.0649 12.542 6.57844C12.0585 6.11359 11.2526 6.05954 10.5346 6.0163V4.75146H9.31836V6.01627C8.60036 6.05951 7.82377 6.14602 7.32555 6.58922C6.82735 7.02165 6.76875 7.6054 6.76875 8.14592C6.76875 8.9243 6.97387 9.25941 7.32555 9.54048C7.63327 9.7891 8.13147 10.0378 8.2194 10.081C8.64433 10.2972 9.06927 10.5242 9.50887 10.7404C10.1243 11.054 10.5346 11.2377 10.6664 11.4863C10.7397 11.6269 10.7397 11.8431 10.7397 11.8755C10.7397 12.1458 10.7837 12.5458 9.9045 12.5458C9.39164 12.5458 9.21581 12.3728 9.1572 12.1998C9.09857 12.0593 9.11322 11.8971 9.11322 11.8539V11.3134H6.63687C6.60757 12.416 6.66619 12.9133 7.25231 13.3349C7.80912 13.7241 8.51247 13.7889 8.76156 13.8106C8.93741 13.8322 9.12789 13.8538 9.31837 13.8646V15.2484H10.5346V13.8646C11.2819 13.7998 11.9559 13.7241 12.5274 13.3349C13.1721 12.9025 13.2454 12.2971 13.2454 11.6917Z" fill="#999195"/>
</svg>
