<svg width="20" height="20" viewBox="0 0 20 20" fill="none" xmlns="http://www.w3.org/2000/svg">
<path d="M3.55048 14.2175L3.55049 14.2175L3.54705 14.2151C3.36269 14.0864 3.1546 13.844 2.99137 13.5346C2.82751 13.2239 2.75 12.924 2.75 12.7172V5.46531C2.75 5.15284 2.88059 4.7742 3.1376 4.42383C3.39314 4.07546 3.73187 3.81281 4.07002 3.69201C4.07027 3.69192 4.07051 3.69183 4.07076 3.69175L9.27718 1.84875C9.44362 1.79112 9.70873 1.75 10.0094 1.75C10.3102 1.75 10.5753 1.79113 10.7417 1.84877C10.7422 1.84894 10.7428 1.84912 10.7433 1.8493L15.946 3.69098C15.9465 3.69119 15.9471 3.69139 15.9477 3.6916C16.2808 3.812 16.617 4.07398 16.8703 4.42175C17.1252 4.77179 17.2529 5.14852 17.2499 5.45828H17.2499V5.46531V12.7172C17.2499 12.9233 17.1728 13.2208 17.009 13.5304C16.8464 13.8376 16.6374 14.0832 16.448 14.2186C16.4476 14.2188 16.4473 14.2191 16.4469 14.2193L11.2393 17.8972L11.2372 17.8987C10.929 18.1179 10.4831 18.25 9.99996 18.25C9.51681 18.25 9.07089 18.1179 8.76268 17.8986L8.76063 17.8972L3.55048 14.2175Z" stroke="#999195" stroke-width="1.5"/>
<path d="M13 8L8.95248 12L7 10.0704" stroke="#999195" stroke-width="1.5" stroke-linecap="round" stroke-linejoin="round"/>
</svg>
